<svg width="32" height="32" viewBox="0 0 32 32" fill="none" xmlns="http://www.w3.org/2000/svg">
<g filter="url(#filter0_d_22_238)">
<path fill-rule="evenodd" clip-rule="evenodd" d="M14.853 2.0279C12.0383 2.32068 9.50992 3.52322 7.51539 5.5177C5.65314 7.3799 4.4898 9.68897 4.09014 12.3163C3.96995 13.1065 3.96995 14.8542 4.09014 15.6444C4.61866 19.1187 6.50692 22.0671 9.46239 24.033C10.0646 24.4335 11.1689 24.992 11.869 25.2501C12.5026 25.4837 13.4408 25.7245 14.1968 25.8476C15.1112 25.9966 16.8448 25.9966 17.7593 25.8476C20.3318 25.4288 22.5554 24.3072 24.3732 22.5116C25.9941 20.9106 27.0889 18.9986 27.6209 16.8397C27.8899 15.7483 27.9527 15.1933 27.9498 13.9335C27.9469 12.6848 27.8672 12.0411 27.5801 10.9494C27.3634 10.1255 27.1467 9.55116 26.7341 8.70689C26.1395 7.49062 25.4141 6.4874 24.3948 5.47209C22.5454 3.62986 20.2887 2.50101 17.6421 2.09437C17.0859 2.00887 15.4178 1.96912 14.853 2.0279ZM16.2296 4.88423C16.3654 4.93584 21.2903 9.13594 21.4564 9.34181C21.6027 9.52308 21.6382 9.83723 21.5367 10.0513C21.4831 10.1642 20.7963 10.7819 19.2813 12.0798C18.0833 13.1062 17.103 13.9614 17.103 13.9803C17.103 13.9992 18.0833 14.8545 19.2813 15.8809C20.7963 17.1788 21.4831 17.7965 21.5367 17.9094C21.6382 18.1234 21.6027 18.4376 21.4564 18.6188C21.2903 18.8247 16.3654 23.0248 16.2296 23.0764C15.9601 23.1789 15.5724 23.0599 15.4032 22.8226L15.2983 22.6756L15.2749 19.1049L15.2515 15.5341L13.3999 17.1259C12.3815 18.0013 11.47 18.7591 11.3744 18.8099C10.7875 19.1214 10.1397 18.4988 10.4251 17.8973C10.4724 17.7976 11.2465 17.1049 12.6751 15.884C13.873 14.8603 14.853 14.0036 14.853 13.9803C14.853 13.957 13.873 13.1003 12.6751 12.0766C11.2465 10.8557 10.4724 10.163 10.4251 10.0634C10.1654 9.51614 10.6816 8.928 11.2807 9.0885C11.3398 9.1043 12.2574 9.86166 13.3198 10.7715L15.2515 12.4257L15.2749 8.85534C15.2973 5.44654 15.3024 5.27906 15.3874 5.15362C15.5592 4.90012 15.946 4.77637 16.2296 4.88423ZM16.6811 9.76158C16.6811 12.3156 16.6852 12.4445 16.7632 12.3778C19.1843 10.3052 19.7749 9.79219 19.7749 9.76158C19.7749 9.73097 19.1843 9.21797 16.7632 7.14539C16.6852 7.07864 16.6811 7.20759 16.6811 9.76158ZM16.6811 18.1991C16.6811 20.7531 16.6852 20.882 16.7632 20.8153C19.1843 18.7427 19.7749 18.2297 19.7749 18.1991C19.7749 18.1685 19.1843 17.6555 16.7632 15.5829C16.6852 15.5161 16.6811 15.6451 16.6811 18.1991Z" fill="white"/>
</g>
<defs>
<filter id="filter0_d_22_238" x="0" y="0" width="31.9499" height="31.9593" filterUnits="userSpaceOnUse" color-interpolation-filters="sRGB">
<feFlood flood-opacity="0" result="BackgroundImageFix"/>
<feColorMatrix in="SourceAlpha" type="matrix" values="0 0 0 0 0 0 0 0 0 0 0 0 0 0 0 0 0 0 127 0" result="hardAlpha"/>
<feOffset dy="2"/>
<feGaussianBlur stdDeviation="2"/>
<feComposite in2="hardAlpha" operator="out"/>
<feColorMatrix type="matrix" values="0 0 0 0 0 0 0 0 0 1 0 0 0 0 1 0 0 0 1 0"/>
<feBlend mode="normal" in2="BackgroundImageFix" result="effect1_dropShadow_22_238"/>
<feBlend mode="normal" in="SourceGraphic" in2="effect1_dropShadow_22_238" result="shape"/>
</filter>
</defs>
</svg>
