<svg width="102" height="105" viewBox="0 0 102 105" fill="none" xmlns="http://www.w3.org/2000/svg">
<path d="M0 5C0 2.23858 2.23858 0 5 0H97C99.7614 0 102 2.23858 102 5V100C102 102.761 99.7614 105 97 105H5C2.23858 105 0 102.761 0 100V5Z" fill="#182F30"/>
<line x1="26.5" y1="19" x2="26.5" y2="87" stroke="white"/>
<line x1="51.5" y1="19" x2="51.5" y2="87" stroke="white"/>
<line x1="77.5" y1="19" x2="77.5" y2="87" stroke="white"/>
<line x1="17" y1="40.5" x2="85" y2="40.5" stroke="white"/>
<line x1="17" y1="66.5" x2="85" y2="66.5" stroke="white"/>
<path d="M38.64 67.36C36.5867 67.36 34.6933 67.0267 32.96 66.36C31.2533 65.6933 29.8933 64.8 28.88 63.68C27.8933 62.5333 27.4 61.2667 27.4 59.88C27.4 58.6533 27.76 57.76 28.48 57.2C29.2 56.64 30.3467 56.36 31.92 56.36C32.3467 56.36 32.68 56.3733 32.92 56.4C32.8133 56.7467 32.76 57.3067 32.76 58.08C32.76 59.3867 33.28 60.4133 34.32 61.16C35.3867 61.88 36.8267 62.24 38.64 62.24C40.5067 62.24 41.9467 61.76 42.96 60.8C43.9733 59.84 44.48 58.4667 44.48 56.68C44.48 55.0533 43.9467 53.7733 42.88 52.84C41.84 51.9067 40.3867 51.44 38.52 51.44C36.4933 51.44 34.7467 51.9467 33.28 52.96C32.6133 53.44 31.8667 53.68 31.04 53.68C30.24 53.68 29.56 53.4533 29 53C28.44 52.52 28.16 51.8933 28.16 51.12C28.16 50.9067 28.1733 50.7467 28.2 50.64L29.8 41.12C30.04 39.7067 30.9733 39 32.6 39H48.96C48.96 42.3333 47.6267 44 44.96 44H34.28L33.64 47.72C32.9467 48.1467 32.3733 48.6133 31.92 49.12L32.16 49.4C33.1467 48.5467 34.3733 47.8667 35.84 47.36C37.3067 46.8267 38.7333 46.56 40.12 46.56C42.12 46.56 43.88 46.9733 45.4 47.8C46.92 48.6267 48.0933 49.8133 48.92 51.36C49.7467 52.88 50.16 54.6533 50.16 56.68C50.16 59.9867 49.1333 62.6 47.08 64.52C45.0267 66.4133 42.2133 67.36 38.64 67.36ZM64.1869 67.36C62.1335 67.36 60.2402 67.0267 58.5069 66.36C56.8002 65.6933 55.4402 64.8 54.4269 63.68C53.4402 62.5333 52.9469 61.2667 52.9469 59.88C52.9469 58.6533 53.3069 57.76 54.0269 57.2C54.7469 56.64 55.8935 56.36 57.4669 56.36C57.8935 56.36 58.2269 56.3733 58.4669 56.4C58.3602 56.7467 58.3069 57.3067 58.3069 58.08C58.3069 59.3867 58.8269 60.4133 59.8669 61.16C60.9335 61.88 62.3735 62.24 64.1869 62.24C66.0535 62.24 67.4935 61.76 68.5069 60.8C69.5202 59.84 70.0269 58.4667 70.0269 56.68C70.0269 55.0533 69.4935 53.7733 68.4269 52.84C67.3869 51.9067 65.9335 51.44 64.0669 51.44C62.0402 51.44 60.2935 51.9467 58.8269 52.96C58.1602 53.44 57.4135 53.68 56.5869 53.68C55.7869 53.68 55.1069 53.4533 54.5469 53C53.9869 52.52 53.7069 51.8933 53.7069 51.12C53.7069 50.9067 53.7202 50.7467 53.7469 50.64L55.3469 41.12C55.5869 39.7067 56.5202 39 58.1469 39H74.5069C74.5069 42.3333 73.1735 44 70.5069 44H59.8269L59.1869 47.72C58.4935 48.1467 57.9202 48.6133 57.4669 49.12L57.7069 49.4C58.6935 48.5467 59.9202 47.8667 61.3869 47.36C62.8535 46.8267 64.2802 46.56 65.6669 46.56C67.6669 46.56 69.4269 46.9733 70.9469 47.8C72.4669 48.6267 73.6402 49.8133 74.4669 51.36C75.2935 52.88 75.7069 54.6533 75.7069 56.68C75.7069 59.9867 74.6802 62.6 72.6269 64.52C70.5735 66.4133 67.7602 67.36 64.1869 67.36Z" fill="#00FFFF"/>
</svg>
