<svg width="448" height="723" viewBox="0 0 448 723" fill="none" xmlns="http://www.w3.org/2000/svg">
<g filter="url(#filter0_d_32_1034)">
<path d="M10 111.5H438" stroke="white" stroke-width="0.5" stroke-dasharray="0.5 0.5"/>
</g>
<g filter="url(#filter1_d_32_1034)">
<path d="M10 11.5H438" stroke="white" stroke-width="0.5" stroke-dasharray="0.5 0.5"/>
</g>
<g filter="url(#filter2_d_32_1034)">
<path d="M10 711.5H438" stroke="white" stroke-width="0.5" stroke-dasharray="0.5 0.5"/>
</g>
<g filter="url(#filter3_d_32_1034)">
<path d="M10 211.5H438" stroke="white" stroke-width="0.5" stroke-dasharray="0.5 0.5"/>
</g>
<g filter="url(#filter4_d_32_1034)">
<path d="M10 311.5H438" stroke="white" stroke-width="0.5" stroke-dasharray="0.5 0.5"/>
</g>
<g filter="url(#filter5_d_32_1034)">
<path d="M10 411.5H438" stroke="white" stroke-width="0.5" stroke-dasharray="0.5 0.5"/>
</g>
<g filter="url(#filter6_d_32_1034)">
<path d="M10 511.5H438" stroke="white" stroke-width="0.5" stroke-dasharray="0.5 0.5"/>
</g>
<g filter="url(#filter7_d_32_1034)">
<path d="M10 611.5H438" stroke="white" stroke-width="0.5" stroke-dasharray="0.5 0.5"/>
</g>
<g filter="url(#filter8_d_32_1034)">
<path d="M95.5 712L95.5 12" stroke="white" stroke-width="0.5" stroke-dasharray="0.5 0.5"/>
</g>
<g filter="url(#filter9_d_32_1034)">
<path d="M7 717L7.00003 17" stroke="white" stroke-width="0.5" stroke-dasharray="0.5 0.5"/>
</g>
<g filter="url(#filter10_d_32_1034)">
<path d="M436 710L436 10" stroke="white" stroke-width="0.5" stroke-dasharray="0.5 0.5"/>
</g>
<g filter="url(#filter11_d_32_1034)">
<path d="M180.5 712L180.5 12" stroke="white" stroke-width="0.5" stroke-dasharray="0.5 0.5"/>
</g>
<g filter="url(#filter12_d_32_1034)">
<path d="M265.5 712L265.5 12" stroke="white" stroke-width="0.5" stroke-dasharray="0.5 0.5"/>
</g>
<g filter="url(#filter13_d_32_1034)">
<path d="M350.5 712L350.5 12" stroke="white" stroke-width="0.5" stroke-dasharray="0.5 0.5"/>
</g>
<path d="M86 109.5C86 105.358 89.3579 102 93.5 102V102C97.6421 102 101 105.358 101 109.5V109.5C101 113.642 97.6421 117 93.5 117V117C89.3579 117 86 113.642 86 109.5V109.5Z" fill="white"/>
<path d="M94 106L95.7321 109.692H92.2679L94 106Z" fill="#C4C4C4"/>
<path d="M94 114L92.2679 110.308L95.7321 110.308L94 114Z" fill="#C4C4C4"/>
<path d="M171 109.5C171 105.358 174.358 102 178.5 102V102C182.642 102 186 105.358 186 109.5V109.5C186 113.642 182.642 117 178.5 117V117C174.358 117 171 113.642 171 109.5V109.5Z" fill="white"/>
<path d="M179 106L180.732 109.692H177.268L179 106Z" fill="#C4C4C4"/>
<path d="M179 114L177.268 110.308L180.732 110.308L179 114Z" fill="#C4C4C4"/>
<path d="M256 109.5C256 105.358 259.358 102 263.5 102V102C267.642 102 271 105.358 271 109.5V109.5C271 113.642 267.642 117 263.5 117V117C259.358 117 256 113.642 256 109.5V109.5Z" fill="white"/>
<path d="M264 106L265.732 109.692H262.268L264 106Z" fill="#C4C4C4"/>
<path d="M264 114L262.268 110.308L265.732 110.308L264 114Z" fill="#C4C4C4"/>
<path d="M341 109.5C341 105.358 344.358 102 348.5 102V102C352.642 102 356 105.358 356 109.5V109.5C356 113.642 352.642 117 348.5 117V117C344.358 117 341 113.642 341 109.5V109.5Z" fill="white"/>
<path d="M349 106L350.732 109.692H347.268L349 106Z" fill="#C4C4C4"/>
<path d="M349 114L347.268 110.308L350.732 110.308L349 114Z" fill="#C4C4C4"/>
<path d="M86 9.5C86 5.35786 89.3579 2 93.5 2V2C97.6421 2 101 5.35786 101 9.5V9.5C101 13.6421 97.6421 17 93.5 17V17C89.3579 17 86 13.6421 86 9.5V9.5Z" fill="white"/>
<path d="M94 6L95.7321 9.69231H92.2679L94 6Z" fill="#C4C4C4"/>
<path d="M94 14L92.2679 10.3077L95.7321 10.3077L94 14Z" fill="#C4C4C4"/>
<path d="M171 9.5C171 5.35786 174.358 2 178.5 2V2C182.642 2 186 5.35786 186 9.5V9.5C186 13.6421 182.642 17 178.5 17V17C174.358 17 171 13.6421 171 9.5V9.5Z" fill="white"/>
<path d="M179 6L180.732 9.69231H177.268L179 6Z" fill="#C4C4C4"/>
<path d="M179 14L177.268 10.3077L180.732 10.3077L179 14Z" fill="#C4C4C4"/>
<path d="M256 9.5C256 5.35786 259.358 2 263.5 2V2C267.642 2 271 5.35786 271 9.5V9.5C271 13.6421 267.642 17 263.5 17V17C259.358 17 256 13.6421 256 9.5V9.5Z" fill="white"/>
<path d="M264 6L265.732 9.69231H262.268L264 6Z" fill="#C4C4C4"/>
<path d="M264 14L262.268 10.3077L265.732 10.3077L264 14Z" fill="#C4C4C4"/>
<path d="M341 9.5C341 5.35786 344.358 2 348.5 2V2C352.642 2 356 5.35786 356 9.5V9.5C356 13.6421 352.642 17 348.5 17V17C344.358 17 341 13.6421 341 9.5V9.5Z" fill="white"/>
<path d="M349 6L350.732 9.69231H347.268L349 6Z" fill="#C4C4C4"/>
<path d="M349 14L347.268 10.3077L350.732 10.3077L349 14Z" fill="#C4C4C4"/>
<path d="M428 7.5C428 3.35786 431.358 0 435.5 0V0C439.642 0 443 3.35786 443 7.5V7.5C443 11.6421 439.642 15 435.5 15V15C431.358 15 428 11.6421 428 7.5V7.5Z" fill="white"/>
<path d="M436 4L437.732 7.69231H434.268L436 4Z" fill="#C4C4C4"/>
<path d="M436 12L434.268 8.30769L437.732 8.30769L436 12Z" fill="#C4C4C4"/>
<path d="M428 107.5C428 103.358 431.358 100 435.5 100V100C439.642 100 443 103.358 443 107.5V107.5C443 111.642 439.642 115 435.5 115V115C431.358 115 428 111.642 428 107.5V107.5Z" fill="white"/>
<path d="M436 104L437.732 107.692H434.268L436 104Z" fill="#C4C4C4"/>
<path d="M436 112L434.268 108.308L437.732 108.308L436 112Z" fill="#C4C4C4"/>
<path d="M86 709.5C86 705.358 89.3579 702 93.5 702V702C97.6421 702 101 705.358 101 709.5V709.5C101 713.642 97.6421 717 93.5 717V717C89.3579 717 86 713.642 86 709.5V709.5Z" fill="white"/>
<path d="M94 706L95.7321 709.692H92.2679L94 706Z" fill="#C4C4C4"/>
<path d="M94 714L92.2679 710.308L95.7321 710.308L94 714Z" fill="#C4C4C4"/>
<path d="M171 709.5C171 705.358 174.358 702 178.5 702V702C182.642 702 186 705.358 186 709.5V709.5C186 713.642 182.642 717 178.5 717V717C174.358 717 171 713.642 171 709.5V709.5Z" fill="white"/>
<path d="M179 706L180.732 709.692H177.268L179 706Z" fill="#C4C4C4"/>
<path d="M179 714L177.268 710.308L180.732 710.308L179 714Z" fill="#C4C4C4"/>
<path d="M256 709.5C256 705.358 259.358 702 263.5 702V702C267.642 702 271 705.358 271 709.5V709.5C271 713.642 267.642 717 263.5 717V717C259.358 717 256 713.642 256 709.5V709.5Z" fill="white"/>
<path d="M264 706L265.732 709.692H262.268L264 706Z" fill="#C4C4C4"/>
<path d="M264 714L262.268 710.308L265.732 710.308L264 714Z" fill="#C4C4C4"/>
<path d="M341 709.5C341 705.358 344.358 702 348.5 702V702C352.642 702 356 705.358 356 709.5V709.5C356 713.642 352.642 717 348.5 717V717C344.358 717 341 713.642 341 709.5V709.5Z" fill="white"/>
<path d="M349 706L350.732 709.692H347.268L349 706Z" fill="#C4C4C4"/>
<path d="M349 714L347.268 710.308L350.732 710.308L349 714Z" fill="#C4C4C4"/>
<path d="M86 209.5C86 205.358 89.3579 202 93.5 202V202C97.6421 202 101 205.358 101 209.5V209.5C101 213.642 97.6421 217 93.5 217V217C89.3579 217 86 213.642 86 209.5V209.5Z" fill="white"/>
<path d="M94 206L95.7321 209.692H92.2679L94 206Z" fill="#C4C4C4"/>
<path d="M94 214L92.2679 210.308L95.7321 210.308L94 214Z" fill="#C4C4C4"/>
<path d="M171 209.5C171 205.358 174.358 202 178.5 202V202C182.642 202 186 205.358 186 209.5V209.5C186 213.642 182.642 217 178.5 217V217C174.358 217 171 213.642 171 209.5V209.5Z" fill="white"/>
<path d="M179 206L180.732 209.692H177.268L179 206Z" fill="#C4C4C4"/>
<path d="M179 214L177.268 210.308L180.732 210.308L179 214Z" fill="#C4C4C4"/>
<path d="M256 209.5C256 205.358 259.358 202 263.5 202V202C267.642 202 271 205.358 271 209.5V209.5C271 213.642 267.642 217 263.5 217V217C259.358 217 256 213.642 256 209.5V209.5Z" fill="white"/>
<path d="M264 206L265.732 209.692H262.268L264 206Z" fill="#C4C4C4"/>
<path d="M264 214L262.268 210.308L265.732 210.308L264 214Z" fill="#C4C4C4"/>
<path d="M341 209.5C341 205.358 344.358 202 348.5 202V202C352.642 202 356 205.358 356 209.5V209.5C356 213.642 352.642 217 348.5 217V217C344.358 217 341 213.642 341 209.5V209.5Z" fill="white"/>
<path d="M349 206L350.732 209.692H347.268L349 206Z" fill="#C4C4C4"/>
<path d="M349 214L347.268 210.308L350.732 210.308L349 214Z" fill="#C4C4C4"/>
<path d="M86 309.5C86 305.358 89.3579 302 93.5 302V302C97.6421 302 101 305.358 101 309.5V309.5C101 313.642 97.6421 317 93.5 317V317C89.3579 317 86 313.642 86 309.5V309.5Z" fill="white"/>
<path d="M94 306L95.7321 309.692H92.2679L94 306Z" fill="#C4C4C4"/>
<path d="M94 314L92.2679 310.308L95.7321 310.308L94 314Z" fill="#C4C4C4"/>
<path d="M171 309.5C171 305.358 174.358 302 178.5 302V302C182.642 302 186 305.358 186 309.5V309.5C186 313.642 182.642 317 178.5 317V317C174.358 317 171 313.642 171 309.5V309.5Z" fill="white"/>
<path d="M179 306L180.732 309.692H177.268L179 306Z" fill="#C4C4C4"/>
<path d="M179 314L177.268 310.308L180.732 310.308L179 314Z" fill="#C4C4C4"/>
<path d="M256 309.5C256 305.358 259.358 302 263.5 302V302C267.642 302 271 305.358 271 309.5V309.5C271 313.642 267.642 317 263.5 317V317C259.358 317 256 313.642 256 309.5V309.5Z" fill="white"/>
<path d="M264 306L265.732 309.692H262.268L264 306Z" fill="#C4C4C4"/>
<path d="M264 314L262.268 310.308L265.732 310.308L264 314Z" fill="#C4C4C4"/>
<path d="M341 309.5C341 305.358 344.358 302 348.5 302V302C352.642 302 356 305.358 356 309.5V309.5C356 313.642 352.642 317 348.5 317V317C344.358 317 341 313.642 341 309.5V309.5Z" fill="white"/>
<path d="M349 306L350.732 309.692H347.268L349 306Z" fill="#C4C4C4"/>
<path d="M349 314L347.268 310.308L350.732 310.308L349 314Z" fill="#C4C4C4"/>
<path d="M86 409.5C86 405.358 89.3579 402 93.5 402V402C97.6421 402 101 405.358 101 409.5V409.5C101 413.642 97.6421 417 93.5 417V417C89.3579 417 86 413.642 86 409.5V409.5Z" fill="white"/>
<path d="M94 406L95.7321 409.692H92.2679L94 406Z" fill="#C4C4C4"/>
<path d="M94 414L92.2679 410.308L95.7321 410.308L94 414Z" fill="#C4C4C4"/>
<path d="M171 409.5C171 405.358 174.358 402 178.5 402V402C182.642 402 186 405.358 186 409.5V409.5C186 413.642 182.642 417 178.5 417V417C174.358 417 171 413.642 171 409.5V409.5Z" fill="white"/>
<path d="M179 406L180.732 409.692H177.268L179 406Z" fill="#C4C4C4"/>
<path d="M179 414L177.268 410.308L180.732 410.308L179 414Z" fill="#C4C4C4"/>
<path d="M256 409.5C256 405.358 259.358 402 263.5 402V402C267.642 402 271 405.358 271 409.5V409.5C271 413.642 267.642 417 263.5 417V417C259.358 417 256 413.642 256 409.5V409.5Z" fill="white"/>
<path d="M264 406L265.732 409.692H262.268L264 406Z" fill="#C4C4C4"/>
<path d="M264 414L262.268 410.308L265.732 410.308L264 414Z" fill="#C4C4C4"/>
<path d="M341 409.5C341 405.358 344.358 402 348.5 402V402C352.642 402 356 405.358 356 409.5V409.5C356 413.642 352.642 417 348.5 417V417C344.358 417 341 413.642 341 409.5V409.5Z" fill="white"/>
<path d="M349 406L350.732 409.692H347.268L349 406Z" fill="#C4C4C4"/>
<path d="M349 414L347.268 410.308L350.732 410.308L349 414Z" fill="#C4C4C4"/>
<path d="M86 509.5C86 505.358 89.3579 502 93.5 502V502C97.6421 502 101 505.358 101 509.5V509.5C101 513.642 97.6421 517 93.5 517V517C89.3579 517 86 513.642 86 509.5V509.5Z" fill="white"/>
<path d="M94 506L95.7321 509.692H92.2679L94 506Z" fill="#C4C4C4"/>
<path d="M94 514L92.2679 510.308L95.7321 510.308L94 514Z" fill="#C4C4C4"/>
<path d="M171 509.5C171 505.358 174.358 502 178.5 502V502C182.642 502 186 505.358 186 509.5V509.5C186 513.642 182.642 517 178.5 517V517C174.358 517 171 513.642 171 509.5V509.5Z" fill="white"/>
<path d="M179 506L180.732 509.692H177.268L179 506Z" fill="#C4C4C4"/>
<path d="M179 514L177.268 510.308L180.732 510.308L179 514Z" fill="#C4C4C4"/>
<path d="M256 509.5C256 505.358 259.358 502 263.5 502V502C267.642 502 271 505.358 271 509.5V509.5C271 513.642 267.642 517 263.5 517V517C259.358 517 256 513.642 256 509.5V509.5Z" fill="white"/>
<path d="M264 506L265.732 509.692H262.268L264 506Z" fill="#C4C4C4"/>
<path d="M264 514L262.268 510.308L265.732 510.308L264 514Z" fill="#C4C4C4"/>
<path d="M341 509.5C341 505.358 344.358 502 348.5 502V502C352.642 502 356 505.358 356 509.5V509.5C356 513.642 352.642 517 348.5 517V517C344.358 517 341 513.642 341 509.5V509.5Z" fill="white"/>
<path d="M349 506L350.732 509.692H347.268L349 506Z" fill="#C4C4C4"/>
<path d="M349 514L347.268 510.308L350.732 510.308L349 514Z" fill="#C4C4C4"/>
<path d="M86 609.5C86 605.358 89.3579 602 93.5 602V602C97.6421 602 101 605.358 101 609.5V609.5C101 613.642 97.6421 617 93.5 617V617C89.3579 617 86 613.642 86 609.5V609.5Z" fill="white"/>
<path d="M94 606L95.7321 609.692H92.2679L94 606Z" fill="#C4C4C4"/>
<path d="M94 614L92.2679 610.308L95.7321 610.308L94 614Z" fill="#C4C4C4"/>
<path d="M0 110.5C0 106.358 3.35786 103 7.5 103V103C11.6421 103 15 106.358 15 110.5V110.5C15 114.642 11.6421 118 7.5 118V118C3.35786 118 0 114.642 0 110.5V110.5Z" fill="white"/>
<path d="M8 107L9.73205 110.692H6.26795L8 107Z" fill="#C4C4C4"/>
<path d="M8 115L6.26795 111.308L9.73205 111.308L8 115Z" fill="#C4C4C4"/>
<path d="M0 10.5C0 6.35786 3.35786 3 7.5 3V3C11.6421 3 15 6.35786 15 10.5V10.5C15 14.6421 11.6421 18 7.5 18V18C3.35786 18 0 14.6421 0 10.5V10.5Z" fill="white"/>
<path d="M8 7L9.73205 10.6923H6.26795L8 7Z" fill="#C4C4C4"/>
<path d="M8 15L6.26795 11.3077L9.73205 11.3077L8 15Z" fill="#C4C4C4"/>
<path d="M0 710.5C0 706.358 3.35786 703 7.5 703V703C11.6421 703 15 706.358 15 710.5V710.5C15 714.642 11.6421 718 7.5 718V718C3.35786 718 0 714.642 0 710.5V710.5Z" fill="white"/>
<path d="M8 707L9.73205 710.692H6.26795L8 707Z" fill="#C4C4C4"/>
<path d="M8 715L6.26795 711.308L9.73205 711.308L8 715Z" fill="#C4C4C4"/>
<path d="M0 210.5C0 206.358 3.35786 203 7.5 203V203C11.6421 203 15 206.358 15 210.5V210.5C15 214.642 11.6421 218 7.5 218V218C3.35786 218 0 214.642 0 210.5V210.5Z" fill="white"/>
<path d="M8 207L9.73205 210.692H6.26795L8 207Z" fill="#C4C4C4"/>
<path d="M8 215L6.26795 211.308L9.73205 211.308L8 215Z" fill="#C4C4C4"/>
<path d="M0 310.5C0 306.358 3.35786 303 7.5 303V303C11.6421 303 15 306.358 15 310.5V310.5C15 314.642 11.6421 318 7.5 318V318C3.35786 318 0 314.642 0 310.5V310.5Z" fill="white"/>
<path d="M8 307L9.73205 310.692H6.26795L8 307Z" fill="#C4C4C4"/>
<path d="M8 315L6.26795 311.308L9.73205 311.308L8 315Z" fill="#C4C4C4"/>
<path d="M0 410.5C0 406.358 3.35786 403 7.5 403V403C11.6421 403 15 406.358 15 410.5V410.5C15 414.642 11.6421 418 7.5 418V418C3.35786 418 0 414.642 0 410.5V410.5Z" fill="white"/>
<path d="M8 407L9.73205 410.692H6.26795L8 407Z" fill="#C4C4C4"/>
<path d="M8 415L6.26795 411.308L9.73205 411.308L8 415Z" fill="#C4C4C4"/>
<path d="M0 510.5C0 506.358 3.35786 503 7.5 503V503C11.6421 503 15 506.358 15 510.5V510.5C15 514.642 11.6421 518 7.5 518V518C3.35786 518 0 514.642 0 510.5V510.5Z" fill="white"/>
<path d="M8 507L9.73205 510.692H6.26795L8 507Z" fill="#C4C4C4"/>
<path d="M8 515L6.26795 511.308L9.73205 511.308L8 515Z" fill="#C4C4C4"/>
<path d="M0 610.5C0 606.358 3.35786 603 7.5 603V603C11.6421 603 15 606.358 15 610.5V610.5C15 614.642 11.6421 618 7.5 618V618C3.35786 618 0 614.642 0 610.5V610.5Z" fill="white"/>
<path d="M8 607L9.73205 610.692H6.26795L8 607Z" fill="#C4C4C4"/>
<path d="M8 615L6.26795 611.308L9.73205 611.308L8 615Z" fill="#C4C4C4"/>
<path d="M171 609.5C171 605.358 174.358 602 178.5 602V602C182.642 602 186 605.358 186 609.5V609.5C186 613.642 182.642 617 178.5 617V617C174.358 617 171 613.642 171 609.5V609.5Z" fill="white"/>
<path d="M179 606L180.732 609.692H177.268L179 606Z" fill="#C4C4C4"/>
<path d="M179 614L177.268 610.308L180.732 610.308L179 614Z" fill="#C4C4C4"/>
<path d="M256 609.5C256 605.358 259.358 602 263.5 602V602C267.642 602 271 605.358 271 609.5V609.5C271 613.642 267.642 617 263.5 617V617C259.358 617 256 613.642 256 609.5V609.5Z" fill="white"/>
<path d="M264 606L265.732 609.692H262.268L264 606Z" fill="#C4C4C4"/>
<path d="M264 614L262.268 610.308L265.732 610.308L264 614Z" fill="#C4C4C4"/>
<path d="M341 609.5C341 605.358 344.358 602 348.5 602V602C352.642 602 356 605.358 356 609.5V609.5C356 613.642 352.642 617 348.5 617V617C344.358 617 341 613.642 341 609.5V609.5Z" fill="white"/>
<path d="M349 606L350.732 609.692H347.268L349 606Z" fill="#C4C4C4"/>
<path d="M349 614L347.268 610.308L350.732 610.308L349 614Z" fill="#C4C4C4"/>
<path d="M428 208.5C428 204.358 431.358 201 435.5 201V201C439.642 201 443 204.358 443 208.5V208.5C443 212.642 439.642 216 435.5 216V216C431.358 216 428 212.642 428 208.5V208.5Z" fill="white"/>
<path d="M436 205L437.732 208.692H434.268L436 205Z" fill="#C4C4C4"/>
<path d="M436 213L434.268 209.308L437.732 209.308L436 213Z" fill="#C4C4C4"/>
<path d="M428 308.5C428 304.358 431.358 301 435.5 301V301C439.642 301 443 304.358 443 308.5V308.5C443 312.642 439.642 316 435.5 316V316C431.358 316 428 312.642 428 308.5V308.5Z" fill="white"/>
<path d="M436 305L437.732 308.692H434.268L436 305Z" fill="#C4C4C4"/>
<path d="M436 313L434.268 309.308L437.732 309.308L436 313Z" fill="#C4C4C4"/>
<path d="M428 408.5C428 404.358 431.358 401 435.5 401V401C439.642 401 443 404.358 443 408.5V408.5C443 412.642 439.642 416 435.5 416V416C431.358 416 428 412.642 428 408.5V408.5Z" fill="white"/>
<path d="M436 405L437.732 408.692H434.268L436 405Z" fill="#C4C4C4"/>
<path d="M436 413L434.268 409.308L437.732 409.308L436 413Z" fill="#C4C4C4"/>
<path d="M428 508.5C428 504.358 431.358 501 435.5 501V501C439.642 501 443 504.358 443 508.5V508.5C443 512.642 439.642 516 435.5 516V516C431.358 516 428 512.642 428 508.5V508.5Z" fill="white"/>
<path d="M436 505L437.732 508.692H434.268L436 505Z" fill="#C4C4C4"/>
<path d="M436 513L434.268 509.308L437.732 509.308L436 513Z" fill="#C4C4C4"/>
<path d="M428 609.5C428 605.358 431.358 602 435.5 602V602C439.642 602 443 605.358 443 609.5V609.5C443 613.642 439.642 617 435.5 617V617C431.358 617 428 613.642 428 609.5V609.5Z" fill="white"/>
<path d="M436 606L437.732 609.692H434.268L436 606Z" fill="#C4C4C4"/>
<path d="M436 614L434.268 610.308L437.732 610.308L436 614Z" fill="#C4C4C4"/>
<path d="M428 709.5C428 705.358 431.358 702 435.5 702V702C439.642 702 443 705.358 443 709.5V709.5C443 713.642 439.642 717 435.5 717V717C431.358 717 428 713.642 428 709.5V709.5Z" fill="white"/>
<path d="M436 706L437.732 709.692H434.268L436 706Z" fill="#C4C4C4"/>
<path d="M436 714L434.268 710.308L437.732 710.308L436 714Z" fill="#C4C4C4"/>
<defs>
<filter id="filter0_d_32_1034" x="6" y="109.25" width="436" height="8.5" filterUnits="userSpaceOnUse" color-interpolation-filters="sRGB">
<feFlood flood-opacity="0" result="BackgroundImageFix"/>
<feColorMatrix in="SourceAlpha" type="matrix" values="0 0 0 0 0 0 0 0 0 0 0 0 0 0 0 0 0 0 127 0" result="hardAlpha"/>
<feOffset dy="2"/>
<feGaussianBlur stdDeviation="2"/>
<feComposite in2="hardAlpha" operator="out"/>
<feColorMatrix type="matrix" values="0 0 0 0 0 0 0 0 0 1 0 0 0 0 1 0 0 0 1 0"/>
<feBlend mode="normal" in2="BackgroundImageFix" result="effect1_dropShadow_32_1034"/>
<feBlend mode="normal" in="SourceGraphic" in2="effect1_dropShadow_32_1034" result="shape"/>
</filter>
<filter id="filter1_d_32_1034" x="6" y="9.25" width="436" height="8.5" filterUnits="userSpaceOnUse" color-interpolation-filters="sRGB">
<feFlood flood-opacity="0" result="BackgroundImageFix"/>
<feColorMatrix in="SourceAlpha" type="matrix" values="0 0 0 0 0 0 0 0 0 0 0 0 0 0 0 0 0 0 127 0" result="hardAlpha"/>
<feOffset dy="2"/>
<feGaussianBlur stdDeviation="2"/>
<feComposite in2="hardAlpha" operator="out"/>
<feColorMatrix type="matrix" values="0 0 0 0 0 0 0 0 0 1 0 0 0 0 1 0 0 0 1 0"/>
<feBlend mode="normal" in2="BackgroundImageFix" result="effect1_dropShadow_32_1034"/>
<feBlend mode="normal" in="SourceGraphic" in2="effect1_dropShadow_32_1034" result="shape"/>
</filter>
<filter id="filter2_d_32_1034" x="6" y="709.25" width="436" height="8.5" filterUnits="userSpaceOnUse" color-interpolation-filters="sRGB">
<feFlood flood-opacity="0" result="BackgroundImageFix"/>
<feColorMatrix in="SourceAlpha" type="matrix" values="0 0 0 0 0 0 0 0 0 0 0 0 0 0 0 0 0 0 127 0" result="hardAlpha"/>
<feOffset dy="2"/>
<feGaussianBlur stdDeviation="2"/>
<feComposite in2="hardAlpha" operator="out"/>
<feColorMatrix type="matrix" values="0 0 0 0 0 0 0 0 0 1 0 0 0 0 1 0 0 0 1 0"/>
<feBlend mode="normal" in2="BackgroundImageFix" result="effect1_dropShadow_32_1034"/>
<feBlend mode="normal" in="SourceGraphic" in2="effect1_dropShadow_32_1034" result="shape"/>
</filter>
<filter id="filter3_d_32_1034" x="6" y="209.25" width="436" height="8.5" filterUnits="userSpaceOnUse" color-interpolation-filters="sRGB">
<feFlood flood-opacity="0" result="BackgroundImageFix"/>
<feColorMatrix in="SourceAlpha" type="matrix" values="0 0 0 0 0 0 0 0 0 0 0 0 0 0 0 0 0 0 127 0" result="hardAlpha"/>
<feOffset dy="2"/>
<feGaussianBlur stdDeviation="2"/>
<feComposite in2="hardAlpha" operator="out"/>
<feColorMatrix type="matrix" values="0 0 0 0 0 0 0 0 0 1 0 0 0 0 1 0 0 0 1 0"/>
<feBlend mode="normal" in2="BackgroundImageFix" result="effect1_dropShadow_32_1034"/>
<feBlend mode="normal" in="SourceGraphic" in2="effect1_dropShadow_32_1034" result="shape"/>
</filter>
<filter id="filter4_d_32_1034" x="6" y="309.25" width="436" height="8.5" filterUnits="userSpaceOnUse" color-interpolation-filters="sRGB">
<feFlood flood-opacity="0" result="BackgroundImageFix"/>
<feColorMatrix in="SourceAlpha" type="matrix" values="0 0 0 0 0 0 0 0 0 0 0 0 0 0 0 0 0 0 127 0" result="hardAlpha"/>
<feOffset dy="2"/>
<feGaussianBlur stdDeviation="2"/>
<feComposite in2="hardAlpha" operator="out"/>
<feColorMatrix type="matrix" values="0 0 0 0 0 0 0 0 0 1 0 0 0 0 1 0 0 0 1 0"/>
<feBlend mode="normal" in2="BackgroundImageFix" result="effect1_dropShadow_32_1034"/>
<feBlend mode="normal" in="SourceGraphic" in2="effect1_dropShadow_32_1034" result="shape"/>
</filter>
<filter id="filter5_d_32_1034" x="6" y="409.25" width="436" height="8.5" filterUnits="userSpaceOnUse" color-interpolation-filters="sRGB">
<feFlood flood-opacity="0" result="BackgroundImageFix"/>
<feColorMatrix in="SourceAlpha" type="matrix" values="0 0 0 0 0 0 0 0 0 0 0 0 0 0 0 0 0 0 127 0" result="hardAlpha"/>
<feOffset dy="2"/>
<feGaussianBlur stdDeviation="2"/>
<feComposite in2="hardAlpha" operator="out"/>
<feColorMatrix type="matrix" values="0 0 0 0 0 0 0 0 0 1 0 0 0 0 1 0 0 0 1 0"/>
<feBlend mode="normal" in2="BackgroundImageFix" result="effect1_dropShadow_32_1034"/>
<feBlend mode="normal" in="SourceGraphic" in2="effect1_dropShadow_32_1034" result="shape"/>
</filter>
<filter id="filter6_d_32_1034" x="6" y="509.25" width="436" height="8.5" filterUnits="userSpaceOnUse" color-interpolation-filters="sRGB">
<feFlood flood-opacity="0" result="BackgroundImageFix"/>
<feColorMatrix in="SourceAlpha" type="matrix" values="0 0 0 0 0 0 0 0 0 0 0 0 0 0 0 0 0 0 127 0" result="hardAlpha"/>
<feOffset dy="2"/>
<feGaussianBlur stdDeviation="2"/>
<feComposite in2="hardAlpha" operator="out"/>
<feColorMatrix type="matrix" values="0 0 0 0 0 0 0 0 0 1 0 0 0 0 1 0 0 0 1 0"/>
<feBlend mode="normal" in2="BackgroundImageFix" result="effect1_dropShadow_32_1034"/>
<feBlend mode="normal" in="SourceGraphic" in2="effect1_dropShadow_32_1034" result="shape"/>
</filter>
<filter id="filter7_d_32_1034" x="6" y="609.25" width="436" height="8.5" filterUnits="userSpaceOnUse" color-interpolation-filters="sRGB">
<feFlood flood-opacity="0" result="BackgroundImageFix"/>
<feColorMatrix in="SourceAlpha" type="matrix" values="0 0 0 0 0 0 0 0 0 0 0 0 0 0 0 0 0 0 127 0" result="hardAlpha"/>
<feOffset dy="2"/>
<feGaussianBlur stdDeviation="2"/>
<feComposite in2="hardAlpha" operator="out"/>
<feColorMatrix type="matrix" values="0 0 0 0 0 0 0 0 0 1 0 0 0 0 1 0 0 0 1 0"/>
<feBlend mode="normal" in2="BackgroundImageFix" result="effect1_dropShadow_32_1034"/>
<feBlend mode="normal" in="SourceGraphic" in2="effect1_dropShadow_32_1034" result="shape"/>
</filter>
<filter id="filter8_d_32_1034" x="89.25" y="8" width="8.50003" height="708" filterUnits="userSpaceOnUse" color-interpolation-filters="sRGB">
<feFlood flood-opacity="0" result="BackgroundImageFix"/>
<feColorMatrix in="SourceAlpha" type="matrix" values="0 0 0 0 0 0 0 0 0 0 0 0 0 0 0 0 0 0 127 0" result="hardAlpha"/>
<feOffset dx="-2"/>
<feGaussianBlur stdDeviation="2"/>
<feComposite in2="hardAlpha" operator="out"/>
<feColorMatrix type="matrix" values="0 0 0 0 0 0 0 0 0 1 0 0 0 0 1 0 0 0 1 0"/>
<feBlend mode="normal" in2="BackgroundImageFix" result="effect1_dropShadow_32_1034"/>
<feBlend mode="normal" in="SourceGraphic" in2="effect1_dropShadow_32_1034" result="shape"/>
</filter>
<filter id="filter9_d_32_1034" x="0.75" y="13" width="8.50003" height="708" filterUnits="userSpaceOnUse" color-interpolation-filters="sRGB">
<feFlood flood-opacity="0" result="BackgroundImageFix"/>
<feColorMatrix in="SourceAlpha" type="matrix" values="0 0 0 0 0 0 0 0 0 0 0 0 0 0 0 0 0 0 127 0" result="hardAlpha"/>
<feOffset dx="-2"/>
<feGaussianBlur stdDeviation="2"/>
<feComposite in2="hardAlpha" operator="out"/>
<feColorMatrix type="matrix" values="0 0 0 0 0 0 0 0 0 1 0 0 0 0 1 0 0 0 1 0"/>
<feBlend mode="normal" in2="BackgroundImageFix" result="effect1_dropShadow_32_1034"/>
<feBlend mode="normal" in="SourceGraphic" in2="effect1_dropShadow_32_1034" result="shape"/>
</filter>
<filter id="filter10_d_32_1034" x="429.75" y="6" width="8.50003" height="708" filterUnits="userSpaceOnUse" color-interpolation-filters="sRGB">
<feFlood flood-opacity="0" result="BackgroundImageFix"/>
<feColorMatrix in="SourceAlpha" type="matrix" values="0 0 0 0 0 0 0 0 0 0 0 0 0 0 0 0 0 0 127 0" result="hardAlpha"/>
<feOffset dx="-2"/>
<feGaussianBlur stdDeviation="2"/>
<feComposite in2="hardAlpha" operator="out"/>
<feColorMatrix type="matrix" values="0 0 0 0 0 0 0 0 0 1 0 0 0 0 1 0 0 0 1 0"/>
<feBlend mode="normal" in2="BackgroundImageFix" result="effect1_dropShadow_32_1034"/>
<feBlend mode="normal" in="SourceGraphic" in2="effect1_dropShadow_32_1034" result="shape"/>
</filter>
<filter id="filter11_d_32_1034" x="174.25" y="8" width="8.50003" height="708" filterUnits="userSpaceOnUse" color-interpolation-filters="sRGB">
<feFlood flood-opacity="0" result="BackgroundImageFix"/>
<feColorMatrix in="SourceAlpha" type="matrix" values="0 0 0 0 0 0 0 0 0 0 0 0 0 0 0 0 0 0 127 0" result="hardAlpha"/>
<feOffset dx="-2"/>
<feGaussianBlur stdDeviation="2"/>
<feComposite in2="hardAlpha" operator="out"/>
<feColorMatrix type="matrix" values="0 0 0 0 0 0 0 0 0 1 0 0 0 0 1 0 0 0 1 0"/>
<feBlend mode="normal" in2="BackgroundImageFix" result="effect1_dropShadow_32_1034"/>
<feBlend mode="normal" in="SourceGraphic" in2="effect1_dropShadow_32_1034" result="shape"/>
</filter>
<filter id="filter12_d_32_1034" x="259.25" y="8" width="8.50003" height="708" filterUnits="userSpaceOnUse" color-interpolation-filters="sRGB">
<feFlood flood-opacity="0" result="BackgroundImageFix"/>
<feColorMatrix in="SourceAlpha" type="matrix" values="0 0 0 0 0 0 0 0 0 0 0 0 0 0 0 0 0 0 127 0" result="hardAlpha"/>
<feOffset dx="-2"/>
<feGaussianBlur stdDeviation="2"/>
<feComposite in2="hardAlpha" operator="out"/>
<feColorMatrix type="matrix" values="0 0 0 0 0 0 0 0 0 1 0 0 0 0 1 0 0 0 1 0"/>
<feBlend mode="normal" in2="BackgroundImageFix" result="effect1_dropShadow_32_1034"/>
<feBlend mode="normal" in="SourceGraphic" in2="effect1_dropShadow_32_1034" result="shape"/>
</filter>
<filter id="filter13_d_32_1034" x="344.25" y="8" width="8.50003" height="708" filterUnits="userSpaceOnUse" color-interpolation-filters="sRGB">
<feFlood flood-opacity="0" result="BackgroundImageFix"/>
<feColorMatrix in="SourceAlpha" type="matrix" values="0 0 0 0 0 0 0 0 0 0 0 0 0 0 0 0 0 0 127 0" result="hardAlpha"/>
<feOffset dx="-2"/>
<feGaussianBlur stdDeviation="2"/>
<feComposite in2="hardAlpha" operator="out"/>
<feColorMatrix type="matrix" values="0 0 0 0 0 0 0 0 0 1 0 0 0 0 1 0 0 0 1 0"/>
<feBlend mode="normal" in2="BackgroundImageFix" result="effect1_dropShadow_32_1034"/>
<feBlend mode="normal" in="SourceGraphic" in2="effect1_dropShadow_32_1034" result="shape"/>
</filter>
</defs>
</svg>
