<svg width="102" height="105" viewBox="0 0 102 105" fill="none" xmlns="http://www.w3.org/2000/svg">
<path d="M0 5C0 2.23858 2.23858 0 5 0H97C99.7614 0 102 2.23858 102 5V100C102 102.761 99.7614 105 97 105H5C2.23858 105 0 102.761 0 100V5Z" fill="#182F30"/>
<line x1="26.5" y1="19" x2="26.5" y2="87" stroke="white"/>
<line x1="51.5" y1="19" x2="51.5" y2="87" stroke="white"/>
<line x1="77.5" y1="19" x2="77.5" y2="87" stroke="white"/>
<line x1="17" y1="40.5" x2="85" y2="40.5" stroke="white"/>
<line x1="17" y1="66.5" x2="85" y2="66.5" stroke="white"/>
<path d="M44.72 60.12H33.48C32.7333 60.12 32.1333 59.92 31.68 59.52C31.2267 59.12 31 58.5733 31 57.88C31 57.16 31.2 56.56 31.6 56.08L45.48 39.56C45.72 39.2933 46.0667 39.08 46.52 38.92C46.9733 38.7333 47.4667 38.64 48 38.64C48.7733 38.64 49.4 38.88 49.88 39.36C50.3867 39.84 50.64 40.4533 50.64 41.2V55.12H55.24C55.24 56.8533 54.9467 58.12 54.36 58.92C53.7733 59.72 52.8533 60.12 51.6 60.12H50.64V63.76C50.64 65.0133 50.16 65.9333 49.2 66.52C48.2667 67.08 46.7733 67.36 44.72 67.36V60.12ZM45.12 55.12V48.24L46.64 46.2L46.32 45.96L38.68 55.12H45.12ZM68.89 67.36C66.8367 67.36 64.9433 67.0267 63.21 66.36C61.5033 65.6933 60.1433 64.8 59.13 63.68C58.1433 62.5333 57.65 61.2667 57.65 59.88C57.65 58.6533 58.01 57.76 58.73 57.2C59.45 56.64 60.5967 56.36 62.17 56.36C62.5967 56.36 62.93 56.3733 63.17 56.4C63.0633 56.7467 63.01 57.3067 63.01 58.08C63.01 59.3867 63.53 60.4133 64.57 61.16C65.6367 61.88 67.0767 62.24 68.89 62.24C70.7567 62.24 72.1967 61.76 73.21 60.8C74.2233 59.84 74.73 58.4667 74.73 56.68C74.73 55.0533 74.1967 53.7733 73.13 52.84C72.09 51.9067 70.6367 51.44 68.77 51.44C66.7433 51.44 64.9967 51.9467 63.53 52.96C62.8633 53.44 62.1167 53.68 61.29 53.68C60.49 53.68 59.81 53.4533 59.25 53C58.69 52.52 58.41 51.8933 58.41 51.12C58.41 50.9067 58.4233 50.7467 58.45 50.64L60.05 41.12C60.29 39.7067 61.2233 39 62.85 39H79.21C79.21 42.3333 77.8767 44 75.21 44H64.53L63.89 47.72C63.1967 48.1467 62.6233 48.6133 62.17 49.12L62.41 49.4C63.3967 48.5467 64.6233 47.8667 66.09 47.36C67.5567 46.8267 68.9833 46.56 70.37 46.56C72.37 46.56 74.13 46.9733 75.65 47.8C77.17 48.6267 78.3433 49.8133 79.17 51.36C79.9967 52.88 80.41 54.6533 80.41 56.68C80.41 59.9867 79.3833 62.6 77.33 64.52C75.2767 66.4133 72.4633 67.36 68.89 67.36Z" fill="#00FFFF"/>
</svg>
