<svg width="102" height="105" viewBox="0 0 102 105" fill="none" xmlns="http://www.w3.org/2000/svg">
<path d="M0 5C0 2.23858 2.23858 0 5 0H97C99.7614 0 102 2.23858 102 5V100C102 102.761 99.7614 105 97 105H5C2.23858 105 0 102.761 0 100V5Z" fill="#182F30"/>
<line x1="26.5" y1="19" x2="26.5" y2="87" stroke="white"/>
<line x1="51.5" y1="19" x2="51.5" y2="87" stroke="white"/>
<line x1="77.5" y1="19" x2="77.5" y2="87" stroke="white"/>
<line x1="17" y1="40.5" x2="85" y2="40.5" stroke="white"/>
<line x1="17" y1="66.5" x2="85" y2="66.5" stroke="white"/>
<path d="M42.92 67.36C40.68 67.36 38.68 67.0267 36.92 66.36C35.1867 65.6933 33.8267 64.76 32.84 63.56C31.88 62.36 31.4 60.9867 31.4 59.44C31.4 58.1067 31.84 57.1467 32.72 56.56C33.6267 55.9733 35.0933 55.68 37.12 55.68C37.04 56.1867 37 56.8267 37 57.6C37 59.1467 37.4933 60.32 38.48 61.12C39.4933 61.8933 40.9733 62.28 42.92 62.28C46.7867 62.28 48.72 61.12 48.72 58.8C48.72 56.4 47.0667 55.2 43.76 55.2H42.48C41.7333 55.2 41.1333 54.9733 40.68 54.52C40.2267 54.0667 40 53.4667 40 52.72C40 51.9733 40.2267 51.3733 40.68 50.92C41.1333 50.4667 41.7333 50.24 42.48 50.24H43.8C45.1867 50.24 46.2133 49.9733 46.88 49.44C47.5733 48.88 47.92 48.04 47.92 46.92C47.92 45.9067 47.4933 45.12 46.64 44.56C45.8133 44 44.6267 43.72 43.08 43.72C41.3467 43.72 40 44.0267 39.04 44.64C38.1067 45.2267 37.64 46.0667 37.64 47.16C37.64 47.6133 37.6933 48.2133 37.8 48.96C36.12 49.0133 34.7467 48.7333 33.68 48.12C32.6133 47.5067 32.08 46.68 32.08 45.64C32.08 44.28 32.5333 43.0667 33.44 42C34.3733 40.9333 35.6667 40.1067 37.32 39.52C39 38.9333 40.92 38.64 43.08 38.64C45.24 38.64 47.1333 38.9867 48.76 39.68C50.3867 40.3467 51.64 41.3067 52.52 42.56C53.4267 43.8133 53.88 45.2667 53.88 46.92C53.88 49.3467 52.64 51.28 50.16 52.72C51.7867 53.4667 52.9467 54.3067 53.64 55.24C54.3333 56.1467 54.68 57.3333 54.68 58.8C54.68 60.48 54.1867 61.9733 53.2 63.28C52.2133 64.56 50.8267 65.56 49.04 66.28C47.28 67 45.24 67.36 42.92 67.36ZM68.7338 67.36C66.6804 67.36 64.7871 67.0267 63.0538 66.36C61.3471 65.6933 59.9871 64.8 58.9738 63.68C57.9871 62.5333 57.4938 61.2667 57.4938 59.88C57.4938 58.6533 57.8538 57.76 58.5738 57.2C59.2938 56.64 60.4404 56.36 62.0138 56.36C62.4404 56.36 62.7738 56.3733 63.0138 56.4C62.9071 56.7467 62.8538 57.3067 62.8538 58.08C62.8538 59.3867 63.3738 60.4133 64.4138 61.16C65.4804 61.88 66.9204 62.24 68.7338 62.24C70.6004 62.24 72.0404 61.76 73.0538 60.8C74.0671 59.84 74.5738 58.4667 74.5738 56.68C74.5738 55.0533 74.0404 53.7733 72.9738 52.84C71.9338 51.9067 70.4804 51.44 68.6138 51.44C66.5871 51.44 64.8404 51.9467 63.3738 52.96C62.7071 53.44 61.9604 53.68 61.1338 53.68C60.3338 53.68 59.6538 53.4533 59.0938 53C58.5338 52.52 58.2538 51.8933 58.2538 51.12C58.2538 50.9067 58.2671 50.7467 58.2938 50.64L59.8938 41.12C60.1338 39.7067 61.0671 39 62.6938 39H79.0538C79.0538 42.3333 77.7204 44 75.0538 44H64.3738L63.7338 47.72C63.0404 48.1467 62.4671 48.6133 62.0138 49.12L62.2538 49.4C63.2404 48.5467 64.4671 47.8667 65.9338 47.36C67.4004 46.8267 68.8271 46.56 70.2138 46.56C72.2138 46.56 73.9738 46.9733 75.4938 47.8C77.0138 48.6267 78.1871 49.8133 79.0138 51.36C79.8404 52.88 80.2538 54.6533 80.2538 56.68C80.2538 59.9867 79.2271 62.6 77.1738 64.52C75.1204 66.4133 72.3071 67.36 68.7338 67.36Z" fill="#00FFFF"/>
</svg>
