<svg width="28" height="28" viewBox="0 0 28 28" fill="none" xmlns="http://www.w3.org/2000/svg">
<g filter="url(#filter0_d_22_186)">
<path fill-rule="evenodd" clip-rule="evenodd" d="M24.7935 0.0263814C20.9059 0.217444 20.2397 0.259678 20.143 0.321131C20.0859 0.357272 18.6832 1.91033 17.0258 3.77235C15.3683 5.63436 14.0017 7.15752 13.9888 7.15719C13.9759 7.15686 12.6094 5.63943 10.9521 3.7851C9.29486 1.93082 7.88982 0.381506 7.82982 0.342178C7.74273 0.285131 7.25884 0.247397 5.42898 0.1551C2.55207 0.010022 2.39621 0.00899076 2.22029 0.134241C2.14632 0.186928 2.06724 0.297647 2.04456 0.380334C2.01835 0.475678 2.05093 1.47754 2.13362 3.11985C2.24392 5.31107 2.27612 5.72896 2.34301 5.8386C2.38651 5.90985 4.00098 7.38144 5.93068 9.10879C7.86039 10.8361 9.43454 12.263 9.42882 12.2795C9.42315 12.2961 9.03165 12.735 8.55892 13.2551L7.69932 14.2006L7.44826 13.9631C6.93278 13.4756 6.80162 13.5027 6.02917 14.2569C5.35276 14.9174 5.17628 15.1394 5.17628 15.3298C5.17628 15.5432 5.24181 15.6325 5.8479 16.2448L6.41561 16.8183L4.37621 18.8698C2.15471 21.1045 2.12978 21.1352 2.02595 21.7617C1.92493 22.3715 2.12087 22.9579 2.5786 23.4156C3.00812 23.8452 3.62968 24.0511 4.19579 23.9514C4.8309 23.8395 4.83428 23.8368 7.06154 21.6127L9.11087 19.5663L9.73342 20.1778C10.102 20.5398 10.4038 20.7983 10.4732 20.8114C10.7317 20.8602 10.8647 20.768 11.5868 20.0405C12.2527 19.3696 12.3013 19.3088 12.3013 19.1453C12.3013 18.9256 12.2476 18.8224 11.9867 18.5408C11.8724 18.4175 11.7857 18.299 11.794 18.2774C11.8023 18.256 12.3008 17.8003 12.9018 17.2648L13.9945 16.2912L14.144 16.4307C14.2262 16.5074 14.7048 16.9351 15.2075 17.3811C15.7103 17.8271 16.1406 18.2092 16.1639 18.2302C16.1877 18.2517 16.0936 18.39 15.948 18.5472C15.6727 18.8446 15.6004 19.0326 15.6797 19.2455C15.7368 19.3986 16.9531 20.6386 17.1468 20.7411C17.4192 20.8853 17.5643 20.8056 18.2321 20.1447L18.8427 19.5404L20.8337 21.5332C21.9287 22.6293 22.9218 23.5889 23.0405 23.6656C23.8375 24.1807 24.9636 23.9882 25.5639 23.2343C26.0335 22.6444 26.1055 21.8274 25.7499 21.1206C25.6845 20.9906 24.9397 20.2088 23.607 18.8715L21.5644 16.8216L22.1829 16.1926C22.7494 15.6164 22.8013 15.5491 22.8013 15.3917C22.8013 15.2972 22.7779 15.1738 22.7493 15.1174C22.675 14.9708 21.4899 13.7794 21.3388 13.6993C21.0682 13.5559 20.8907 13.6182 20.4998 13.9936L20.2842 14.2007L19.4216 13.2332C18.9472 12.7011 18.5553 12.2515 18.5507 12.2341C18.5461 12.2167 20.1248 10.7893 22.059 9.06191C23.9932 7.33457 25.6053 5.86438 25.6415 5.79486C25.69 5.70182 25.7383 5.0639 25.8243 3.3808C25.9651 0.627366 25.9683 0.378319 25.8655 0.231459C25.7656 0.0888657 25.5208 -0.0107436 25.2989 0.000928261C25.2014 0.00603763 24.9739 0.0174751 24.7935 0.0263814ZM5.65792 1.20524C7.27975 1.28474 7.28856 1.28572 7.3974 1.4001C7.45759 1.46329 8.75762 2.91777 10.2864 4.63222C11.8151 6.34668 13.1075 7.79582 13.1583 7.85258L13.2508 7.95571L12.6471 8.63394L12.0435 9.31222L10.895 8.17241C10.0316 7.31549 9.70998 7.02491 9.59912 7.00161C9.16647 6.91077 8.80937 7.41801 9.05551 7.77379C9.10042 7.83876 9.63943 8.38719 10.2533 8.99254L11.3693 10.0932L10.7761 10.7611C10.4498 11.1285 10.169 11.4288 10.1522 11.4285C10.0819 11.4271 3.2769 5.31951 3.26682 5.24872C3.25131 5.13979 3.0669 1.43957 3.0669 1.23707V1.07062L3.54737 1.09794C3.81165 1.11299 4.76139 1.16127 5.65792 1.20524ZM24.8896 1.33926C24.8755 1.48752 24.8319 2.33652 24.7927 3.22597C24.7536 4.11543 24.7099 4.95346 24.6957 5.08827L24.6698 5.33343L20.9816 8.62916C15.8417 13.2221 11.0419 17.476 10.9993 17.476C10.9796 17.476 10.7637 17.2754 10.5196 17.0302L10.0757 16.5845L14.4883 12.167C16.9153 9.73729 18.9242 7.70333 18.9527 7.64704C19.0596 7.4354 18.9975 7.18119 18.7983 7.01465C18.6863 6.92099 18.3931 6.90327 18.2396 6.98085C18.1833 7.0093 16.1542 9.01335 13.7305 11.4343L9.32373 15.8361L8.86576 15.3764L8.40784 14.9168L8.86797 14.4034C10.087 13.0433 20.6509 1.30354 20.6591 1.29979C20.6664 1.29646 24.1558 1.10732 24.7841 1.07624L24.9153 1.06972L24.8896 1.33926ZM18.7892 14.1198L19.535 14.9515L19.0711 15.4171L18.6073 15.8827L17.6339 14.9101C17.0985 14.3752 16.6658 13.9218 16.6723 13.9025C16.6787 13.8832 16.9161 13.6574 17.1997 13.4007L17.7153 12.934L17.8794 13.111C17.9696 13.2084 18.379 13.6624 18.7892 14.1198ZM16.884 15.6133L17.8799 16.6101L17.415 17.0733L16.95 17.5364L15.8659 16.5628C15.2696 16.0273 14.788 15.5705 14.7956 15.5476C14.8099 15.5047 15.8215 14.6268 15.8642 14.6203C15.8773 14.6182 16.3362 15.0651 16.884 15.6133ZM8.98736 16.998L11.0871 19.0981L10.8457 19.3016L10.6043 19.5051L8.52381 17.4251L6.44331 15.3449L6.66348 15.1214C6.7846 14.9984 6.88459 14.8978 6.88567 14.8978C6.88675 14.8978 7.8325 15.8429 8.98736 16.998ZM19.4393 17.4332L17.3403 19.5241L17.1169 19.3096L16.8934 19.0951L18.991 16.9972L21.0886 14.8993L21.3134 15.1207L21.5383 15.3422L19.4393 17.4332ZM7.97532 19.2174C7.73781 19.4431 7.52209 19.6287 7.49593 19.63C7.46978 19.6312 7.17807 19.3613 6.8477 19.0303L6.24704 18.4282L6.70778 18.0002L7.16846 17.5722L7.78782 18.1897L8.40723 18.8072L7.97532 19.2174ZM21.0784 19.0812L20.4576 19.702L20.0005 19.2418L19.5435 18.7816L20.1763 18.1773L20.8091 17.5731L21.2541 18.0168L21.6992 18.4604L21.0784 19.0812ZM22.7193 20.7216L22.0988 21.342L21.6296 20.8746L21.1604 20.4072L21.7811 19.7851L22.4019 19.1631L22.8709 19.6321L23.3398 20.101L22.7193 20.7216ZM6.18235 19.818L6.78864 20.4256L6.32228 20.8704C6.06582 21.1151 5.83454 21.3163 5.80839 21.3175C5.78223 21.3187 5.49779 21.0561 5.17637 20.7339L4.59193 20.148L5.059 19.6792C5.31592 19.4213 5.53731 19.2103 5.55109 19.2103C5.56482 19.2103 5.84889 19.4838 6.18235 19.818ZM4.74456 22.4216C4.37031 22.7786 4.21056 22.8687 3.94248 22.8741C3.48099 22.8833 3.11378 22.5085 3.11378 22.0281C3.11378 21.7135 3.19885 21.5506 3.5515 21.1903L3.83875 20.8967L4.44892 21.5091L5.05909 22.1214L4.74456 22.4216ZM24.5069 21.2776C24.8132 21.6084 24.9099 21.803 24.9104 22.0901C24.9107 22.2664 24.7437 22.6131 24.6394 22.6526C24.5952 22.6693 24.4853 22.7243 24.395 22.7747C24.1822 22.8937 23.8358 22.8945 23.608 22.7765C23.5124 22.727 23.3075 22.5563 23.1528 22.3972L22.8716 22.108L23.481 21.5266C23.8161 21.2068 24.1147 20.9451 24.1445 20.945C24.1743 20.9448 24.3374 21.0945 24.5069 21.2776Z" fill="white"/>
</g>
<defs>
<filter id="filter0_d_22_186" x="0" y="0" width="27.9739" height="27.9761" filterUnits="userSpaceOnUse" color-interpolation-filters="sRGB">
<feFlood flood-opacity="0" result="BackgroundImageFix"/>
<feColorMatrix in="SourceAlpha" type="matrix" values="0 0 0 0 0 0 0 0 0 0 0 0 0 0 0 0 0 0 127 0" result="hardAlpha"/>
<feOffset dy="2"/>
<feGaussianBlur stdDeviation="1"/>
<feComposite in2="hardAlpha" operator="out"/>
<feColorMatrix type="matrix" values="0 0 0 0 0 0 0 0 0 1 0 0 0 0 1 0 0 0 1 0"/>
<feBlend mode="normal" in2="BackgroundImageFix" result="effect1_dropShadow_22_186"/>
<feBlend mode="normal" in="SourceGraphic" in2="effect1_dropShadow_22_186" result="shape"/>
</filter>
</defs>
</svg>
