<svg width="32" height="32" viewBox="0 0 32 32" fill="none" xmlns="http://www.w3.org/2000/svg">
<g filter="url(#filter0_d_22_294)">
<path fill-rule="evenodd" clip-rule="evenodd" d="M7.84375 0.0331406C6.87695 0.164344 6.01952 0.581391 5.32023 1.26052C4.71827 1.84514 4.31294 2.54578 4.10514 3.36089C4.00384 3.75825 4 3.85097 4 5.88281V7.99219L4.12567 8.26031C4.28477 8.59973 4.60586 8.91356 4.93267 9.04903C5.17825 9.1508 5.18772 9.16148 5.2172 9.37012C5.4828 11.2518 6.84972 12.7205 8.68905 13.1004C9.06114 13.1773 9.93255 13.202 10.2396 13.1444L10.3984 13.1145V13.4418C10.3984 13.6217 10.4309 13.9549 10.4705 14.1822C10.7717 15.9093 11.8898 17.404 13.4793 18.2045C13.8899 18.4112 14.1057 18.426 14.2615 18.2578L14.3702 18.1406L14.7866 18.2323C15.0157 18.2827 15.2823 18.3364 15.3792 18.3517C15.5234 18.3743 15.5672 18.408 15.6213 18.5375C15.7214 18.777 15.8324 18.8143 16.339 18.7786C17.7026 18.6828 18.9234 18.1348 19.8882 17.1854C20.9136 16.1763 21.5547 14.7202 21.5547 13.4001C21.5547 13.1972 21.5745 13.0312 21.5987 13.0312C21.6228 13.0312 21.7845 13.0642 21.9579 13.1044C22.4146 13.2103 23.1856 13.2 23.6855 13.0813C24.1345 12.9746 24.6627 12.747 25.0082 12.5113C25.5265 12.1576 26.0777 11.5328 26.3483 10.9922C26.491 10.7073 26.6878 10.0878 26.7311 9.78745C26.7616 9.5759 26.773 9.56245 27.0146 9.45178C27.3719 9.28823 27.658 9.00628 27.8179 8.66002L27.9531 8.36719V6.9375C27.9531 5.52277 27.9518 5.50303 27.8249 5.04923C27.4726 3.78909 26.852 2.96344 25.7448 2.28192C25.5817 2.18152 25.5473 2.13248 25.5199 1.96181C25.4225 1.35258 24.8605 0.673828 24.1797 0.343078C23.6418 0.0817969 23.3682 0.0225469 22.7266 0.0283594C22.0461 0.0345469 21.5871 0.170812 21.0608 0.522797C20.5381 0.872391 20.2168 1.31067 20.0536 1.89675C19.978 2.16797 19.9661 2.18203 19.6567 2.3655C19.4813 2.46956 19.1725 2.70942 18.9707 2.89847C18.3707 3.46027 17.9583 4.17361 17.7228 5.05692C17.6132 5.46834 17.6008 5.60948 17.5817 6.66961C17.5628 7.72153 17.5535 7.82916 17.4835 7.80755C17.0509 7.67386 16.6387 7.62478 15.9447 7.62441L15.1862 7.62394L15.1708 5.74556L15.1555 3.86719L15.032 3.52837C14.8517 3.03375 14.6905 2.78302 14.3104 2.40666C13.9581 2.05781 13.4414 1.75828 13.0948 1.70203C13.004 1.68727 12.9297 1.66856 12.9297 1.66041C12.9297 1.65225 12.9841 1.5443 13.0506 1.42045C13.1517 1.23225 13.1687 1.14806 13.1542 0.907312C13.1316 0.533391 12.9678 0.285141 12.634 0.118734L12.3956 0L10.19 0.00703125C8.97691 0.010875 7.92109 0.0226406 7.84375 0.0331406ZM9.86284 4.80192C10.2558 5.0655 10.829 5.27592 11.5469 5.4203C11.8562 5.4825 12.1906 5.5687 12.2898 5.61183C12.5706 5.73394 12.7891 6.09244 12.7891 6.43102C12.7891 6.61509 12.9761 6.79687 13.1655 6.79687C13.3476 6.79687 13.5859 6.5752 13.5859 6.40589C13.5859 6.22542 13.6324 6.1432 13.7768 6.06858C13.9735 5.96686 14.0931 5.9843 14.2458 6.13702L14.3828 6.27403L14.3822 6.96905C14.3818 7.35131 14.3695 7.70869 14.3549 7.76325C14.3375 7.82803 14.2647 7.88151 14.1452 7.91733C13.532 8.10103 12.6458 8.64764 12.1013 9.17794C11.6436 9.62358 11.2339 10.1895 10.9595 10.7547C10.7451 11.1965 10.4922 11.9484 10.4922 12.1442C10.4922 12.3138 10.3198 12.3517 9.55469 12.3501C8.88391 12.3487 8.79934 12.3385 8.45312 12.2184C7.08011 11.7421 6.10694 10.5172 6.00789 9.14062C5.96622 8.56191 5.84781 8.39062 5.48936 8.39062C5.28072 8.39062 4.97997 8.17833 4.87169 7.95459C4.78469 7.77487 4.77344 7.66711 4.77344 7.01283V6.27403L4.91045 6.13702C5.0567 5.99077 5.18566 5.96662 5.35075 6.05451C5.49836 6.13317 5.56712 6.23901 5.56881 6.39033C5.57087 6.5708 5.80047 6.79687 5.98173 6.79687C6.16736 6.79687 6.36719 6.60727 6.36719 6.43111C6.36719 6.10392 6.58487 5.73497 6.85295 5.60775C6.94258 5.56523 7.20217 5.4983 7.42984 5.45897C8.23197 5.32055 9.20308 4.94653 9.43998 4.68478C9.48527 4.63472 9.52914 4.59375 9.53739 4.59375C9.54569 4.59375 9.69212 4.68741 9.86284 4.80192ZM23.7587 5.34666C24.7091 5.60855 25.4792 6.26081 25.8984 7.15898C26.0686 7.52367 26.1485 7.59375 26.3943 7.59375C26.6609 7.59375 26.7849 7.42819 26.8155 7.03125C26.8262 6.89198 26.8471 6.86498 26.9539 6.85266C27.1553 6.82941 27.1933 6.9623 27.1716 7.61395C27.1564 8.06981 27.1336 8.21944 27.0565 8.36864C26.9492 8.57648 26.6686 8.76366 26.4625 8.76487C26.2956 8.76581 26.0717 8.8807 26.0092 8.99742C25.9826 9.04702 25.9609 9.17423 25.9609 9.28012C25.9609 9.65615 25.8195 10.1917 25.603 10.635C24.9849 11.901 23.5135 12.6116 22.1423 12.3066C21.5849 12.1826 21.4773 12.1254 21.4415 11.9343C21.3448 11.4191 20.9889 10.6056 20.6229 10.0632C20.1563 9.37162 19.4473 8.71486 18.7606 8.33798L18.4141 8.14777V7.52086C18.4141 6.95742 18.4229 6.88917 18.5013 6.84722C18.636 6.77517 18.7284 6.88256 18.7552 7.14225C18.7715 7.30022 18.814 7.40564 18.8934 7.485C19.1287 7.72036 19.1598 7.70531 21.0748 6.42909L22.8438 5.25014L23.1259 5.25009C23.2811 5.25005 23.5659 5.2935 23.7587 5.34666ZM6.70872 18.4891C6.10263 18.6808 5.57481 19.2366 5.43189 19.8336C5.3747 20.0722 5.19531 22.1451 5.19536 22.566C5.19541 23.1019 5.55831 23.6383 6.08022 23.8741C6.39569 24.0166 6.96353 24.0139 7.28125 23.8685C7.53934 23.7503 7.87952 23.4453 7.99727 23.2266C8.03889 23.1492 8.1183 22.9172 8.17366 22.7109L8.2743 22.3359L8.55986 22.3082C8.93369 22.2719 9.28141 22.0475 9.44289 21.7383C9.5335 21.5648 9.59898 21.5793 9.76628 21.8097C9.9918 22.1203 10.2557 22.2795 10.5843 22.3033C10.7915 22.3183 10.87 22.3435 10.8862 22.4001C11.1295 23.2535 11.2565 23.4856 11.6072 23.7179C12.5763 24.3598 13.8609 23.7822 13.9488 22.665C13.9728 22.3607 13.7971 20.1737 13.7211 19.8301C13.6122 19.3377 13.1665 18.8089 12.6603 18.5717L12.3906 18.4453L9.64844 18.436C7.47344 18.4286 6.86538 18.4396 6.70872 18.4891ZM19.8672 18.5022C19.348 18.6815 18.8847 19.1273 18.6954 19.6296C18.5665 19.9714 18.3445 22.4941 18.4153 22.8104C18.522 23.2864 18.8111 23.6462 19.2538 23.8537C19.6 24.016 20.1536 24.0266 20.479 23.8771C20.9431 23.664 21.2029 23.3261 21.379 22.7067L21.4844 22.3359L21.7503 22.3073C22.0896 22.2709 22.4085 22.0863 22.599 21.816C22.6791 21.7023 22.7669 21.61 22.7942 21.6109C22.8214 21.6117 22.8996 21.7044 22.9679 21.817C23.1345 22.0918 23.4561 22.2782 23.8073 22.3036L24.0745 22.323L24.1789 22.7183C24.299 23.173 24.4883 23.4834 24.7804 23.7051C25.5115 24.2596 26.6392 23.973 27.0344 23.1322C27.1842 22.8135 27.1885 22.576 27.0688 21.2109C26.9406 19.7485 26.889 19.5337 26.5684 19.1282C26.3476 18.8488 26.0402 18.6301 25.7005 18.5107C25.4631 18.4273 25.2836 18.4221 22.7629 18.4256C20.4628 18.4288 20.0479 18.4397 19.8672 18.5022Z" fill="white"/>
<path d="M13.8452 11.3636L14.7915 14.2259H14.8288L15.7734 11.3636H16.4979L15.2159 15H14.4027L13.1225 11.3636H13.8452ZM18.953 12.3633C18.9365 12.2082 18.8666 12.0875 18.7435 12.0011C18.6216 11.9147 18.463 11.8714 18.2677 11.8714C18.1304 11.8714 18.0126 11.8922 17.9143 11.9336C17.8161 11.975 17.7409 12.0312 17.6888 12.1023C17.6367 12.1733 17.6101 12.2544 17.6089 12.3455C17.6089 12.4213 17.6261 12.487 17.6604 12.5426C17.6959 12.5982 17.7439 12.6456 17.8042 12.6847C17.8646 12.7225 17.9315 12.7545 18.0049 12.7805C18.0783 12.8066 18.1523 12.8285 18.2268 12.8462L18.5677 12.9315C18.705 12.9634 18.837 13.0066 18.9637 13.0611C19.0915 13.1155 19.2058 13.1842 19.3064 13.267C19.4082 13.3499 19.4887 13.4499 19.5479 13.5671C19.607 13.6843 19.6366 13.8216 19.6366 13.979C19.6366 14.1921 19.5822 14.3797 19.4733 14.5419C19.3644 14.7029 19.2069 14.829 19.001 14.9201C18.7962 15.0101 18.5482 15.055 18.257 15.055C17.9741 15.055 17.7285 15.0112 17.5202 14.9237C17.313 14.8361 17.1508 14.7082 17.0336 14.5401C16.9176 14.372 16.8549 14.1673 16.8454 13.9258H17.4935C17.503 14.0524 17.5421 14.1578 17.6107 14.2418C17.6794 14.3259 17.7687 14.3886 17.8788 14.43C17.9901 14.4715 18.1144 14.4922 18.2517 14.4922C18.3949 14.4922 18.5204 14.4709 18.6281 14.4283C18.737 14.3845 18.8222 14.3241 18.8838 14.2472C18.9453 14.169 18.9767 14.0779 18.9779 13.9737C18.9767 13.879 18.9489 13.8009 18.8944 13.7393C18.84 13.6766 18.7636 13.6245 18.6654 13.5831C18.5683 13.5405 18.4547 13.5026 18.3245 13.4695L17.9108 13.3629C17.6113 13.286 17.3746 13.1694 17.2006 13.0131C17.0277 12.8557 16.9413 12.6468 16.9413 12.3864C16.9413 12.1721 16.9993 11.9845 17.1153 11.8235C17.2325 11.6625 17.3917 11.5376 17.593 11.4489C17.7942 11.3589 18.022 11.3139 18.2765 11.3139C18.5346 11.3139 18.7607 11.3589 18.9548 11.4489C19.1501 11.5376 19.3034 11.6613 19.4147 11.82C19.526 11.9774 19.5834 12.1585 19.5869 12.3633H18.953Z" fill="black"/>
<circle cx="7.5" cy="20.5" r="0.5" fill="black"/>
<circle cx="7.5" cy="20.5" r="0.5" fill="black"/>
<circle cx="7.5" cy="20.5" r="0.5" fill="black"/>
<circle cx="7.5" cy="20.5" r="0.5" fill="black"/>
<circle cx="20.5" cy="20.5" r="0.5" fill="black"/>
<circle cx="20.5" cy="20.5" r="0.5" fill="black"/>
<circle cx="20.5" cy="20.5" r="0.5" fill="black"/>
<circle cx="20.5" cy="20.5" r="0.5" fill="black"/>
<circle cx="25.5" cy="20.5" r="0.5" fill="black"/>
<circle cx="25.5" cy="20.5" r="0.5" fill="black"/>
<circle cx="25.5" cy="20.5" r="0.5" fill="black"/>
<circle cx="25.5" cy="20.5" r="0.5" fill="black"/>
<circle cx="11.5" cy="20.5" r="0.5" fill="black"/>
<circle cx="11.5" cy="20.5" r="0.5" fill="black"/>
<circle cx="11.5" cy="20.5" r="0.5" fill="black"/>
<circle cx="11.5" cy="20.5" r="0.5" fill="black"/>
</g>
<defs>
<filter id="filter0_d_22_294" x="0" y="0" width="31.9531" height="31.9905" filterUnits="userSpaceOnUse" color-interpolation-filters="sRGB">
<feFlood flood-opacity="0" result="BackgroundImageFix"/>
<feColorMatrix in="SourceAlpha" type="matrix" values="0 0 0 0 0 0 0 0 0 0 0 0 0 0 0 0 0 0 127 0" result="hardAlpha"/>
<feOffset dy="4"/>
<feGaussianBlur stdDeviation="2"/>
<feComposite in2="hardAlpha" operator="out"/>
<feColorMatrix type="matrix" values="0 0 0 0 0 0 0 0 0 1 0 0 0 0 1 0 0 0 1 0"/>
<feBlend mode="normal" in2="BackgroundImageFix" result="effect1_dropShadow_22_294"/>
<feBlend mode="normal" in="SourceGraphic" in2="effect1_dropShadow_22_294" result="shape"/>
</filter>
</defs>
</svg>
