<svg width="170" height="100" viewBox="0 0 170 100" fill="none" xmlns="http://www.w3.org/2000/svg">
<path d="M0 5C0 2.23858 2.23858 0 5 0H165C167.761 0 170 2.23858 170 5V95C170 97.7614 167.761 100 165 100H5C2.23858 100 0 97.7614 0 95V5Z" fill="#182F30"/>
<path d="M92.7012 18.1241C93.3287 17.8648 93.8412 16.9868 93.8412 16.1738C93.8412 14.9306 94.1157 14.9798 95.5622 16.4832C96.5536 17.5127 96.9495 18.637 96.4962 19.1322C96.0511 19.6191 96.115 20.4915 96.643 21.14C97.2833 21.9252 97.276 22.4771 96.6221 22.8896C96.0247 23.265 95.7 28.0994 95.7584 35.7482C95.8341 45.6585 96.0338 47.4266 96.8027 44.9848C97.3253 43.3235 98.3093 41.9651 98.9897 41.9651C100.11 41.9651 100.656 38.9472 100.334 34.5319C100.12 31.5967 101.554 30.662 104.405 31.8773C105.868 32.5017 109.734 33.2878 112.994 33.626L118.922 34.2392L113.45 34.3999C106.909 34.5913 103.046 36.3539 109.118 36.3762C112.308 36.3874 112.994 36.7015 112.994 38.1491C112.994 40.3957 114.706 41.0359 120.715 41.0359C124.783 41.0359 125.626 40.7414 126.027 39.1776C126.637 36.8009 128.499 36.7516 128.499 39.1126C128.499 40.2657 129.232 41.0127 130.551 41.2032C132.101 41.428 132.569 42.0682 132.465 43.8234C132.342 45.8814 132.993 50.058 134.452 56.5992C134.892 58.5764 135.361 58.6897 143.109 58.6897C147.614 58.6897 151.3 59.0038 151.3 59.3866C151.3 60.5731 141.583 78.069 139.03 81.479L136.614 84.7059H83.7878H30.9613L29.6214 79.8279C26.6855 69.1371 26.36 67.2853 26.3554 61.2449L26.35 54.9731H48.2619H70.1737L70.7209 52.1857C71.0994 50.2587 71.8044 49.3983 73.0065 49.3983C73.9632 49.3983 75.0103 48.6661 75.334 47.7723C76.2078 45.362 77.4572 44.7823 81.8168 44.7665C86.3104 44.7507 89.281 46.0524 89.281 48.037C89.281 48.7859 90.0526 49.3983 90.9948 49.3983C92.5553 49.3983 92.7686 48.2712 93.3696 36.8334C93.843 27.8271 93.7326 23.9043 92.9793 22.9788C92.1858 22.0051 92.1868 21.5266 92.9821 21.0258C93.7527 20.5408 93.7034 20.1255 92.7987 19.4788C91.8365 18.7912 91.8147 18.4901 92.7012 18.1241Z" fill="#00FFFF"/>
<path d="M8.10869 18.9216C7.81935 18.9216 7.58602 18.8422 7.40869 18.6836C7.24069 18.5156 7.15669 18.3009 7.15669 18.0396C7.15669 17.3022 7.44602 16.6349 8.02469 16.0376C8.60335 15.4402 9.52269 14.8756 10.7827 14.3436C11.3427 14.1102 11.7674 13.8909 12.0567 13.6856C12.3554 13.4802 12.5654 13.2609 12.6867 13.0276C12.8174 12.7942 12.8827 12.5142 12.8827 12.1876C12.8827 11.7489 12.7287 11.4082 12.4207 11.1656C12.122 10.9136 11.702 10.7876 11.1607 10.7876C10.526 10.7876 10.0547 10.9136 9.74669 11.1656C9.43869 11.4082 9.28469 11.7862 9.28469 12.2996C9.28469 12.5889 9.30802 12.8222 9.35469 12.9996C9.19602 13.0276 9.05135 13.0416 8.92069 13.0416C8.46335 13.0416 8.07135 12.9109 7.74469 12.6496C7.41802 12.3789 7.25469 12.0476 7.25469 11.6556C7.25469 11.1609 7.42269 10.7129 7.75869 10.3116C8.10402 9.9009 8.57535 9.5789 9.17269 9.34557C9.77002 9.11224 10.4327 8.99557 11.1607 8.99557C11.9167 8.99557 12.5794 9.1309 13.1487 9.40157C13.7274 9.6629 14.1754 10.0362 14.4927 10.5216C14.81 10.9976 14.9687 11.5529 14.9687 12.1876C14.9687 12.8782 14.7074 13.5129 14.1847 14.0916C13.6714 14.6702 12.9014 15.1789 11.8747 15.6176C11.0627 15.9629 10.47 16.2569 10.0967 16.4996C9.73269 16.7422 9.53669 16.9662 9.50869 17.1716H13.5967C14.1007 17.1716 14.4787 17.3209 14.7307 17.6196C14.992 17.9089 15.1227 18.3429 15.1227 18.9216H8.10869Z" fill="white"/>
</svg>
