<svg width="340" height="100" viewBox="0 0 340 100" fill="none" xmlns="http://www.w3.org/2000/svg">
<path d="M0 5C0 2.23858 2.23858 0 5 0H335C337.761 0 340 2.23858 340 5V95C340 97.7614 337.761 100 335 100H5C2.23858 100 0 97.7614 0 95V5Z" fill="#182F30"/>
<path d="M151.585 26.3275C152.191 26.1065 152.305 24.6533 152.305 17.1499C152.305 11.6394 152.484 8.23529 152.775 8.23529C153.061 8.23529 153.296 11.7585 153.375 17.2499L153.505 26.2645L155.065 26.4073C156.568 26.5452 156.626 26.6246 156.626 28.5754V30.6006H158.546C160.274 30.6006 160.466 30.4865 160.466 29.4595C160.466 28.8319 160.25 28.3184 159.986 28.3184C159.719 28.3184 159.506 27.1011 159.506 25.5798V22.8412H162.387H165.267V25.5798C165.267 27.1011 165.054 28.3184 164.787 28.3184C164.523 28.3184 164.307 28.8319 164.307 29.4595C164.307 30.4865 164.499 30.6006 166.227 30.6006C167.955 30.6006 168.147 30.7147 168.147 31.7417C168.147 32.8572 168.067 32.8828 164.547 32.8828C162.567 32.8828 160.946 33.0051 160.946 33.1544C160.946 33.7331 163.007 39.9735 163.289 40.2464C163.453 40.4053 164.559 40.6294 165.747 40.7444C166.935 40.8594 167.529 40.8695 167.067 40.7663C166.241 40.5819 166.158 40.2369 166.053 36.5343C166.009 35.0102 166.09 34.9303 167.797 34.7952C169.086 34.693 169.588 34.8331 169.588 35.295C169.588 35.6478 170.012 36.301 170.53 36.747C171.048 37.1929 171.713 38.2513 172.007 39.0999C172.368 40.1405 172.843 40.6422 173.466 40.6422C174.32 40.6422 174.388 41.0142 174.388 45.6629V50.6837H177.029H179.669V52.9467V55.2098L183.39 55.343L187.11 55.4763L187.246 60.8394L187.381 66.2025H196.247H205.113V68.89V71.5775L206.857 71.4661C208.21 71.3799 208.652 71.5446 208.833 72.2019C209.047 72.9792 209.655 73.049 216.211 73.049H223.356V70.7988C223.356 68.8279 223.49 68.5235 224.436 68.3505C225.031 68.2414 224.275 68.1246 222.756 68.0903L219.996 68.0283V65.7461V63.4639H221.916C223.303 63.4639 223.836 63.2736 223.836 62.7793C223.836 62.253 224.451 62.0946 226.492 62.0946C228.41 62.0946 229.224 62.2849 229.423 62.7793C229.576 63.1558 230.109 63.4639 230.609 63.4639C231.109 63.4639 231.518 63.1558 231.518 62.7793C231.518 61.8591 236.566 61.7975 237.134 62.7108C237.346 63.0499 238.707 63.4762 240.159 63.6588C246.268 64.4261 250.732 64.7775 254.71 64.8045C257.4 64.8227 258.831 64.9994 258.642 65.2896C258.465 65.5621 255.356 65.7461 250.932 65.7461C246.359 65.7461 243.492 65.9209 243.447 66.2025C243.408 66.4536 243.354 66.9159 243.327 67.2295C243.301 67.5435 242.955 67.9397 242.559 68.1104C241.97 68.3642 241.992 68.4263 242.679 68.4527C243.363 68.4788 243.52 68.9101 243.52 70.7669V73.049H253.841C263.693 73.049 264.163 73.0093 264.163 72.1741C264.163 71.693 264.433 71.1959 264.763 71.069C265.093 70.9426 264.553 70.8225 263.563 70.8029C261.826 70.7682 261.762 70.7098 261.762 69.1374V67.5075L269.084 67.7576C283.262 68.2423 288.173 68.5614 287.902 68.9795C287.752 69.2095 285.374 69.3976 282.617 69.3976C278.482 69.3976 277.605 69.5172 277.605 70.0822C277.605 70.4588 277.335 70.7701 277.005 70.7737C276.602 70.7787 276.574 70.8906 276.92 71.116C277.203 71.3004 277.574 71.8112 277.745 72.2503C278.029 72.9838 279.101 73.049 290.832 73.049C297.889 73.049 303.537 73.227 303.449 73.4466C303.361 73.6652 300.816 77.8763 297.794 82.8044L292.298 91.7647L169.635 91.6497L46.9722 91.5347L45.1729 83.0906C44.1829 78.4464 43.363 74.2869 43.3505 73.8478C43.3294 73.1207 43.9933 73.049 50.7686 73.049H58.2098V71.9349C58.2098 71.3219 58.4264 70.6934 58.6914 70.5377C59.0116 70.3497 59.0058 69.9585 58.6746 69.3697C58.23 68.5806 57.6323 68.4847 53.1522 68.4847C50.3889 68.4847 48.1282 68.2966 48.1282 68.0666C48.1282 67.6503 53.2617 67.3217 67.2113 66.8447L74.5324 66.5946V68.2245C74.5324 69.7969 74.4691 69.8554 72.7322 69.89C71.7422 69.9097 71.2022 70.0297 71.532 70.1562C71.8623 70.283 72.1321 70.9855 72.1321 71.7176V73.049H78.6131C84.7413 73.049 85.0941 73.0002 85.0941 72.1499C85.0941 71.3087 85.4907 71.2425 91.2151 71.1229L97.3361 70.9951V67.3436V63.6921L93.0154 63.4639C87.783 63.1878 88.3001 62.4461 93.6203 62.5971L97.3361 62.7021L97.4811 60.6053C97.6189 58.6088 97.5617 58.5011 96.2809 58.3614C95.3255 58.2574 94.8925 57.9269 94.7869 57.2208C94.6683 56.4284 94.9112 56.197 95.9871 56.0797C97.2986 55.9369 97.3361 55.8565 97.3361 53.1941V50.4555L93.6155 50.3222C90.2895 50.2031 89.8949 50.094 89.8949 49.2953C89.8949 48.4824 90.2425 48.4016 93.7355 48.4016H97.5761V41.555C97.5761 37.2951 97.7576 34.7085 98.0562 34.7085C98.3524 34.7085 98.5627 37.3768 98.6054 41.6691C98.7629 57.4855 98.5968 55.9131 100.125 56.0797C101.201 56.197 101.444 56.4284 101.326 57.2208C101.221 57.9214 100.787 58.2573 99.8565 58.3591L98.5363 58.5038V62.3529V66.2025H103.097H107.658V58.2149V50.2273H115.339H123.02V56.8456V63.4639H128.541H134.062V64.8332V66.2025H141.976H149.889L150.017 53.5365L150.145 40.8704L151.225 40.7243C152.247 40.5865 152.305 40.3738 152.305 36.7305C152.305 32.9307 152.29 32.8828 151.105 32.8828C150.237 32.8828 149.905 32.6377 149.905 31.9968C149.905 31.5094 150.121 30.984 150.385 30.8288C150.649 30.6736 150.865 29.6567 150.865 28.5686C150.865 27.2312 151.098 26.5055 151.585 26.3275Z" fill="#00FFFF"/>
<path d="M11.1169 15.092H7.1829C6.92157 15.092 6.71157 15.022 6.5529 14.882C6.39424 14.742 6.3149 14.5507 6.3149 14.308C6.3149 14.056 6.3849 13.846 6.5249 13.678L11.3829 7.896C11.4669 7.80267 11.5882 7.728 11.7469 7.672C11.9056 7.60667 12.0782 7.574 12.2649 7.574C12.5356 7.574 12.7549 7.658 12.9229 7.826C13.1002 7.994 13.1889 8.20867 13.1889 8.47V13.342H14.7989C14.7989 13.9487 14.6962 14.392 14.4909 14.672C14.2856 14.952 13.9636 15.092 13.5249 15.092H13.1889V16.366C13.1889 16.8047 13.0209 17.1267 12.6849 17.332C12.3582 17.528 11.8356 17.626 11.1169 17.626V15.092ZM11.2569 13.342V10.934L11.7889 10.22L11.6769 10.136L9.0029 13.342H11.2569Z" fill="white"/>
</svg>
