<svg width="255" height="100" viewBox="0 0 255 100" fill="none" xmlns="http://www.w3.org/2000/svg">
<g clip-path="url(#clip0_31_504)">
<path d="M250 -2.18557e-07C252.761 -9.78513e-08 255 2.23858 255 5L255 95C255 97.7614 252.761 100 250 100L5 100C2.23857 100 -4.27329e-06 97.7614 -4.15258e-06 95L-2.18557e-07 4.99999C-9.78513e-08 2.23857 2.23858 -1.10486e-05 5 -1.09278e-05L250 -2.18557e-07Z" fill="#182F30"/>
<path d="M144.372 38.6118L144.372 25.4823C144.372 17.2938 144.563 12.3529 144.88 12.3529C145.176 12.3529 145.388 15.1601 145.388 19.0794C145.388 22.7794 145.616 26.0414 145.896 26.3294C146.175 26.6174 146.404 29.4982 146.404 32.7323L146.404 38.6118L153.665 38.6118C161.137 38.6118 162.145 39.0285 162.145 42.1186C162.145 43.2096 162.639 43.6602 164.049 43.8551L165.953 44.1176L165.953 48.5664L165.953 53.0152L167.604 53.0135C168.512 53.0126 169.254 52.6306 169.254 52.1647C169.254 51.6988 169.94 51.3176 170.777 51.3176C171.615 51.3176 172.301 51.6988 172.301 52.1647C172.301 52.6306 173.313 53.0118 174.55 53.0118C176.848 53.0118 178.394 54.5695 178.394 56.8836C178.394 58.4778 181.118 58.4948 181.908 56.9057C182.362 55.9934 182.346 55.6004 181.843 55.2116C181.351 54.8321 181.338 54.5864 181.793 54.2273C182.126 53.9647 182.282 53.2405 182.14 52.6196C181.996 51.9978 182.096 51.266 182.36 50.9932C182.952 50.3833 186.011 52.8364 186.011 53.9206C186.011 54.3526 187.097 54.7745 188.423 54.8583L190.835 55.0108L188.423 55.3285C186.746 55.5487 186.011 56.0188 186.011 56.8701C186.011 57.8561 187.022 58.0984 191.216 58.1178C195.626 58.1382 196.77 58.4389 198.706 60.0881C201.481 62.4514 203.759 67.5913 204.142 72.3535L204.425 75.8823L130.475 75.8823L56.525 75.8823L56.525 73.7376C56.525 72.5577 56.8561 70.2706 57.2608 68.6553L57.9965 65.7176L77.0255 65.7176L96.0548 65.7176L102.314 63.1832C112.088 59.2249 117.747 58.1043 127.996 58.0992C135.528 58.0949 137.263 57.8756 137.263 56.9269C137.263 56.1476 136.758 55.8316 135.74 55.9765C134.562 56.1433 134.217 55.846 134.217 54.6627C134.217 53.8215 133.874 52.5611 133.455 51.8623C133.036 51.1635 132.693 49.6117 132.693 48.4131C132.693 46.3962 132.862 46.2353 134.978 46.2353C137.225 46.2353 137.263 46.1879 137.263 43.44C137.263 39.5224 138.049 38.6118 141.427 38.6118L144.372 38.6118Z" fill="#00FFFF"/>
<path d="M13.9277 17.9562C13.1437 17.9562 12.4437 17.8395 11.8277 17.6062C11.2211 17.3729 10.7451 17.0462 10.3997 16.6262C10.0637 16.2062 9.89573 15.7255 9.89573 15.1842C9.89573 14.7175 10.0497 14.3815 10.3577 14.1762C10.6751 13.9709 11.1884 13.8682 11.8977 13.8682C11.8697 14.0455 11.8557 14.2695 11.8557 14.5402C11.8557 15.0815 12.0284 15.4922 12.3737 15.7722C12.7284 16.0429 13.2464 16.1782 13.9277 16.1782C15.2811 16.1782 15.9577 15.7722 15.9577 14.9602C15.9577 14.1202 15.3791 13.7002 14.2217 13.7002L13.7737 13.7002C13.5124 13.7002 13.3024 13.6209 13.1437 13.4622C12.9851 13.3035 12.9057 13.0935 12.9057 12.8322C12.9057 12.5709 12.9851 12.3609 13.1437 12.2022C13.3024 12.0435 13.5124 11.9642 13.7737 11.9642L14.2357 11.9642C14.7211 11.9642 15.0804 11.8709 15.3137 11.6842C15.5564 11.4882 15.6777 11.1942 15.6777 10.8022C15.6777 10.4475 15.5284 10.1722 15.2297 9.9762C14.9404 9.7802 14.5251 9.6822 13.9837 9.6822C13.3771 9.6822 12.9057 9.78953 12.5697 10.0042C12.2431 10.2095 12.0797 10.5035 12.0797 10.8862C12.0797 11.0449 12.0984 11.2549 12.1357 11.5162C11.5477 11.5349 11.0671 11.4369 10.6937 11.2222C10.3204 11.0075 10.1337 10.7182 10.1337 10.3542C10.1337 9.8782 10.2924 9.45353 10.6097 9.0802C10.9364 8.70687 11.3891 8.41753 11.9677 8.2122C12.5557 8.00687 13.2277 7.9042 13.9837 7.9042C14.7397 7.9042 15.4024 8.02553 15.9717 8.2682C16.5411 8.50153 16.9797 8.83753 17.2877 9.2762C17.6051 9.71487 17.7637 10.2235 17.7637 10.8022C17.7637 11.6515 17.3297 12.3282 16.4617 12.8322C17.0311 13.0935 17.4371 13.3875 17.6797 13.7142C17.9224 14.0315 18.0437 14.4469 18.0437 14.9602C18.0437 15.5482 17.8711 16.0709 17.5257 16.5282C17.1804 16.9762 16.6951 17.3262 16.0697 17.5782C15.4537 17.8302 14.7397 17.9562 13.9277 17.9562Z" fill="white"/>
</g>
<defs>
<clipPath id="clip0_31_504">
<path d="M250 -2.18557e-07C252.761 -9.78513e-08 255 2.23858 255 5L255 95C255 97.7614 252.761 100 250 100L5 100C2.23857 100 -4.27329e-06 97.7614 -4.15258e-06 95L-2.18557e-07 4.99999C-9.78513e-08 2.23857 2.23858 -1.10486e-05 5 -1.09278e-05L250 -2.18557e-07Z" fill="white"/>
</clipPath>
</defs>
</svg>
