<svg width="85" height="100" viewBox="0 0 85 100" fill="none" xmlns="http://www.w3.org/2000/svg">
<path d="M0 5C0 2.23858 2.23858 0 5 0H80C82.7614 0 85 2.23858 85 5V95C85 97.7614 82.7614 100 80 100H5C2.23858 100 0 97.7614 0 95V5Z" fill="#182F30"/>
<path d="M41.9289 16.8877C42.1625 15.5036 42.4093 11.9205 42.4781 8.92485L42.6018 3.47827L43.0954 10.6269C43.3672 14.5587 43.6272 18.1391 43.6737 18.5837C43.721 19.0276 44.7756 19.4871 46.0185 19.6049C48.7769 19.865 48.6858 20.9897 45.8482 21.71C43.8413 22.2186 43.7593 22.3888 43.7593 26.0278C43.7593 28.7844 44.1374 30.287 45.1496 31.5465C46.7304 33.5148 46.9216 35.1712 45.7057 36.362C45.0572 36.9972 45.5201 37.179 47.7912 37.179C50.2471 37.179 50.7108 37.3948 50.7108 38.5406C50.7108 39.2895 50.3201 39.9043 49.8418 39.9063C49.3643 39.9084 47.8002 40.2291 46.3661 40.6192C43.8024 41.3163 43.7593 41.3831 43.7593 44.7V48.0721H51.3649C58.869 48.0721 60.837 48.6393 59.1312 50.31C58.6633 50.7682 58.3574 53.8387 58.3574 58.0802C58.3574 61.9371 58.2629 65.0927 58.1468 65.0927C58.0307 65.0927 54.5521 63.8897 50.416 62.4191L42.8959 59.7455L35.2326 62.4341C31.0179 63.9128 27.4879 65.0396 27.3878 64.9375C27.2884 64.8353 27.1042 61.0758 26.9784 56.5824L26.7503 48.4125L34.2121 48.2192L41.6738 48.0258V44.713V41.3994L38.1619 40.5749C33.747 39.5373 33.5823 37.7039 37.8575 37.179C39.6127 36.9638 40.312 36.6364 39.7622 36.2878C38.4859 35.479 38.7014 33.5161 40.2835 31.5465C41.2873 30.2965 41.6738 28.7844 41.6738 26.1068C41.6738 22.5515 41.5856 22.3724 39.5363 21.789C36.7154 20.9849 36.6096 19.8697 39.3297 19.611C41.2428 19.4286 41.5549 19.1011 41.9289 16.8877Z" fill="#00FFFF"/>
<path d="M20.2055 68.7351L30.7655 64.9456C36.5742 62.8616 41.8393 61.1228 42.4663 61.082C43.4124 61.0207 56.5757 65.4767 64.1959 68.4376L66.2105 69.2212L65.7823 75.497C65.277 82.8935 63.8109 88.1896 61.7672 90.0013C60.4005 91.2124 59.0581 91.3044 42.7166 91.3044C23.0188 91.3044 23.1696 91.3398 21.6417 86.3446C20.3682 82.182 19.3443 73.7868 19.7905 71.169L20.2055 68.7351Z" fill="#00FFFF"/>
<path d="M10.5172 10.8856H9.83125C9.42058 10.8856 9.08458 10.7222 8.82325 10.3956C8.57125 10.0689 8.44525 9.64424 8.44525 9.12157H11.6232C11.8846 9.12157 12.1086 9.20557 12.2952 9.37357C12.4819 9.54157 12.5752 9.7469 12.5752 9.98957V17.5636C12.5752 18.0489 12.3979 18.4176 12.0432 18.6696C11.6979 18.9216 11.1892 19.0476 10.5172 19.0476V10.8856Z" fill="white"/>
</svg>
